<mxfile host="app.diagrams.net" modified="2024-01-06T16:10:26.314Z" agent="Mozilla/5.0 (X11; Linux x86_64; rv:123.0) Gecko/20100101 Firefox/123.0" etag="uRYYaMXEI5lEtc2A3lm-" version="22.1.17" type="github">
  <diagram name="第 1 页" id="5xE2pu7hxx_X-OzfAx90">
    <mxGraphModel dx="1242" dy="800" grid="1" gridSize="10" guides="1" tooltips="1" connect="1" arrows="1" fold="1" page="1" pageScale="1" pageWidth="1200" pageHeight="1920" math="1" shadow="0">
      <root>
        <mxCell id="0" />
        <mxCell id="1" parent="0" />
        <mxCell id="SqtCPuBUiB2_FI0Xo8bG-1" value="Chapitre 1" style="swimlane;whiteSpace=wrap;html=1;" parent="1" vertex="1">
          <mxGeometry x="400" y="120" width="240" height="200" as="geometry">
            <mxRectangle x="80" y="200" width="100" height="30" as="alternateBounds" />
          </mxGeometry>
        </mxCell>
        <mxCell id="ux4-CTBbILNKBdS3F7yl-2" value="&lt;font style=&quot;font-size: 18px;&quot;&gt;Espace Vectoriel&lt;/font&gt;" style="text;html=1;strokeColor=none;fillColor=none;align=center;verticalAlign=middle;whiteSpace=wrap;rounded=0;" parent="SqtCPuBUiB2_FI0Xo8bG-1" vertex="1">
          <mxGeometry x="10" y="85" width="220" height="30" as="geometry" />
        </mxCell>
        <mxCell id="ux4-CTBbILNKBdS3F7yl-3" value="Définition de \(\mathbb{K}\)-espace vectoriel (\(\mathbb{K}\).e.v.)" style="swimlane;fontStyle=0;childLayout=stackLayout;horizontal=1;startSize=30;horizontalStack=0;resizeParent=1;resizeParentMax=0;resizeLast=0;collapsible=1;marginBottom=0;whiteSpace=wrap;html=1;swimlaneLine=1;" parent="1" vertex="1">
          <mxGeometry y="361" width="480" height="620" as="geometry">
            <mxRectangle x="80" y="400" width="380" height="30" as="alternateBounds" />
          </mxGeometry>
        </mxCell>
        <mxCell id="ux4-CTBbILNKBdS3F7yl-40" value="Corps (&lt;svg xmlns:xlink=&quot;http://www.w3.org/1999/xlink&quot; viewBox=&quot;0 -683 2723.3 877&quot; role=&quot;img&quot; height=&quot;1.984ex&quot; width=&quot;6.161ex&quot; xmlns=&quot;http://www.w3.org/2000/svg&quot; style=&quot;vertical-align: -0.439ex;&quot;&gt;&lt;defs&gt;&lt;path d=&quot;M22 666Q22 676 33 683H351L358 679Q368 665 358 655Q351 648 324 648Q288 645 280 637Q275 631 274 605T273 477L275 343L382 446Q473 530 492 553T512 599Q512 617 502 631T475 648Q455 651 455 666Q455 677 465 680T510 683H593H720Q732 676 732 666Q732 659 727 654T713 648Q670 648 589 581Q567 562 490 489T413 415Q413 413 554 245T711 61Q737 35 751 35Q758 35 763 29T768 15Q768 6 758 -1H624Q491 -1 486 3Q480 10 480 17Q480 25 487 30T506 35Q518 36 520 38T520 48L400 195L302 310L286 297L273 283V170Q275 65 277 57Q280 41 300 38Q302 37 324 35Q349 35 358 28Q367 17 358 3L351 -1H33Q22 4 22 16Q22 35 60 35Q101 38 106 52Q111 60 111 341T106 632Q100 645 60 648Q22 648 22 666ZM240 341V553Q240 635 246 648H138Q141 641 142 638T144 603T146 517T146 341Q146 131 145 89T139 37Q138 36 138 35H246Q240 47 240 129V341ZM595 632L615 648H535L542 637Q542 636 544 625T549 610V595L562 606Q565 608 577 618T595 632ZM524 226L386 388Q386 389 378 382T358 361Q330 338 330 333Q330 332 330 332L331 330L533 90Q558 55 558 41V35H684L671 50Q667 54 524 226Z&quot; id=&quot;MJX-22-TEX-D-1D542&quot;&gt;&lt;/path&gt;&lt;path d=&quot;M78 35T78 60T94 103T137 121Q165 121 187 96T210 8Q210 -27 201 -60T180 -117T154 -158T130 -185T117 -194Q113 -194 104 -185T95 -172Q95 -168 106 -156T131 -126T157 -76T173 -3V9L172 8Q170 7 167 6T161 3T152 1T140 0Q113 0 96 17Z&quot; id=&quot;MJX-22-TEX-N-2C&quot;&gt;&lt;/path&gt;&lt;path d=&quot;M56 237T56 250T70 270H369V420L370 570Q380 583 389 583Q402 583 409 568V270H707Q722 262 722 250T707 230H409V-68Q401 -82 391 -82H389H387Q375 -82 369 -68V230H70Q56 237 56 250Z&quot; id=&quot;MJX-22-TEX-N-2B&quot;&gt;&lt;/path&gt;&lt;path d=&quot;M78 250Q78 274 95 292T138 310Q162 310 180 294T199 251Q199 226 182 208T139 190T96 207T78 250Z&quot; id=&quot;MJX-22-TEX-N-22C5&quot;&gt;&lt;/path&gt;&lt;/defs&gt;&lt;g transform=&quot;scale(1,-1)&quot; stroke-width=&quot;0&quot; fill=&quot;currentColor&quot; stroke=&quot;currentColor&quot;&gt;&lt;g data-mml-node=&quot;math&quot;&gt;&lt;g data-mjx-texclass=&quot;ORD&quot; data-mml-node=&quot;TeXAtom&quot;&gt;&lt;g data-mml-node=&quot;mi&quot;&gt;&lt;use xlink:href=&quot;#MJX-22-TEX-D-1D542&quot; data-c=&quot;1D542&quot;&gt;&lt;/use&gt;&lt;/g&gt;&lt;/g&gt;&lt;g transform=&quot;translate(778,0)&quot; data-mml-node=&quot;mo&quot;&gt;&lt;use xlink:href=&quot;#MJX-22-TEX-N-2C&quot; data-c=&quot;2C&quot;&gt;&lt;/use&gt;&lt;/g&gt;&lt;g transform=&quot;translate(1222.7,0)&quot; data-mml-node=&quot;mo&quot;&gt;&lt;use xlink:href=&quot;#MJX-22-TEX-N-2B&quot; data-c=&quot;2B&quot;&gt;&lt;/use&gt;&lt;/g&gt;&lt;g transform=&quot;translate(2000.7,0)&quot; data-mml-node=&quot;mo&quot;&gt;&lt;use xlink:href=&quot;#MJX-22-TEX-N-2C&quot; data-c=&quot;2C&quot;&gt;&lt;/use&gt;&lt;/g&gt;&lt;g transform=&quot;translate(2445.3,0)&quot; data-mml-node=&quot;mo&quot;&gt;&lt;/g&gt;&lt;/g&gt;&lt;/g&gt;&lt;/svg&gt;.) (代数群)" style="text;strokeColor=none;fillColor=none;align=left;verticalAlign=middle;spacingLeft=4;spacingRight=4;overflow=hidden;points=[[0,0.5],[1,0.5]];portConstraint=eastwest;rotatable=0;whiteSpace=wrap;html=1;rounded=0;glass=0;" parent="ux4-CTBbILNKBdS3F7yl-3" vertex="1">
          <mxGeometry y="30" width="480" height="70" as="geometry" />
        </mxCell>
        <mxCell id="ux4-CTBbILNKBdS3F7yl-19" value="Addition \(+\)" style="text;strokeColor=default;fillColor=none;align=left;verticalAlign=middle;spacingLeft=4;spacingRight=4;overflow=hidden;points=[[0,0.5],[1,0.5]];portConstraint=eastwest;rotatable=0;whiteSpace=wrap;html=1;rounded=0;glass=0;" parent="ux4-CTBbILNKBdS3F7yl-3" vertex="1">
          <mxGeometry y="100" width="480" height="60" as="geometry" />
        </mxCell>
        <mxCell id="ux4-CTBbILNKBdS3F7yl-20" value="\(+\) est associative&lt;span style=&quot;white-space: pre;&quot;&gt;&#x9;&lt;/span&gt;&lt;span style=&quot;white-space: pre;&quot;&gt;&#x9;&lt;/span&gt;结合律" style="text;strokeColor=none;fillColor=none;align=left;verticalAlign=middle;spacingLeft=4;spacingRight=4;overflow=hidden;points=[[0,0.5],[1,0.5]];portConstraint=eastwest;rotatable=0;whiteSpace=wrap;html=1;" parent="ux4-CTBbILNKBdS3F7yl-3" vertex="1">
          <mxGeometry y="160" width="480" height="50" as="geometry" />
        </mxCell>
        <mxCell id="ux4-CTBbILNKBdS3F7yl-21" value="\(+\) possède un élément neutre noté \(0_E\)&lt;span style=&quot;white-space: pre;&quot;&gt;&#x9;&lt;/span&gt;&lt;span style=&quot;white-space: pre;&quot;&gt;&#x9;&lt;/span&gt;零元素（唯一）" style="text;strokeColor=none;fillColor=none;align=left;verticalAlign=middle;spacingLeft=4;spacingRight=4;overflow=hidden;points=[[0,0.5],[1,0.5]];portConstraint=eastwest;rotatable=0;whiteSpace=wrap;html=1;" parent="ux4-CTBbILNKBdS3F7yl-3" vertex="1">
          <mxGeometry y="210" width="480" height="50" as="geometry" />
        </mxCell>
        <mxCell id="ux4-CTBbILNKBdS3F7yl-22" value="Tout élément de \(E\) possède un unique opposé&lt;span style=&quot;white-space: pre;&quot;&gt;&#x9;&lt;/span&gt;&lt;span style=&quot;white-space: pre;&quot;&gt;&#x9;&lt;/span&gt;唯一逆元" style="text;strokeColor=none;fillColor=none;align=left;verticalAlign=middle;spacingLeft=4;spacingRight=4;overflow=hidden;points=[[0,0.5],[1,0.5]];portConstraint=eastwest;rotatable=0;whiteSpace=wrap;html=1;" parent="ux4-CTBbILNKBdS3F7yl-3" vertex="1">
          <mxGeometry y="260" width="480" height="50" as="geometry" />
        </mxCell>
        <mxCell id="ux4-CTBbILNKBdS3F7yl-39" value="\(+\) est commutative&lt;span style=&quot;white-space: pre;&quot;&gt;&#x9;&lt;/span&gt;&lt;span style=&quot;white-space: pre;&quot;&gt;&#x9;&lt;/span&gt;交换律" style="text;strokeColor=none;fillColor=none;align=left;verticalAlign=middle;spacingLeft=4;spacingRight=4;overflow=hidden;points=[[0,0.5],[1,0.5]];portConstraint=eastwest;rotatable=0;whiteSpace=wrap;html=1;" parent="ux4-CTBbILNKBdS3F7yl-3" vertex="1">
          <mxGeometry y="310" width="480" height="50" as="geometry" />
        </mxCell>
        <mxCell id="ux4-CTBbILNKBdS3F7yl-28" value="Multiplication \(\cdot\)" style="text;strokeColor=default;fillColor=none;align=left;verticalAlign=middle;spacingLeft=4;spacingRight=4;overflow=hidden;points=[[0,0.5],[1,0.5]];portConstraint=eastwest;rotatable=0;whiteSpace=wrap;html=1;" parent="ux4-CTBbILNKBdS3F7yl-3" vertex="1">
          <mxGeometry y="360" width="480" height="60" as="geometry" />
        </mxCell>
        <mxCell id="ux4-CTBbILNKBdS3F7yl-33" value="\(.\) est distributive par rapport à l&#39;addition de \(E\)&lt;span style=&quot;white-space: pre;&quot;&gt;&#x9;&lt;/span&gt;&lt;span style=&quot;white-space: pre;&quot;&gt;&#x9;&lt;/span&gt;\((E, +)\) 分配律" style="text;strokeColor=none;fillColor=none;align=left;verticalAlign=middle;spacingLeft=4;spacingRight=4;overflow=hidden;points=[[0,0.5],[1,0.5]];portConstraint=eastwest;rotatable=0;whiteSpace=wrap;html=1;" parent="ux4-CTBbILNKBdS3F7yl-3" vertex="1">
          <mxGeometry y="420" width="480" height="50" as="geometry" />
        </mxCell>
        <mxCell id="ux4-CTBbILNKBdS3F7yl-34" value="\(.\) est distributive par rapport à l&#39;addition de \(\mathbb{K}\)&lt;span style=&quot;white-space: pre;&quot;&gt;&#x9;&lt;/span&gt;&lt;span style=&quot;white-space: pre;&quot;&gt;&#x9;&lt;/span&gt;\((\mathbb{K}, +)\) 分配律" style="text;strokeColor=none;fillColor=none;align=left;verticalAlign=middle;spacingLeft=4;spacingRight=4;overflow=hidden;points=[[0,0.5],[1,0.5]];portConstraint=eastwest;rotatable=0;whiteSpace=wrap;html=1;" parent="ux4-CTBbILNKBdS3F7yl-3" vertex="1">
          <mxGeometry y="470" width="480" height="50" as="geometry" />
        </mxCell>
        <mxCell id="ux4-CTBbILNKBdS3F7yl-35" value="\(.\) est distributive par rapport à la multiplication de \(\mathbb{K}\)&lt;span style=&quot;white-space: pre;&quot;&gt;&#x9;&lt;/span&gt;&lt;span style=&quot;white-space: pre;&quot;&gt;&#x9;&lt;/span&gt;\((\mathbb{K}, .)\) 分配律" style="text;strokeColor=none;fillColor=none;align=left;verticalAlign=middle;spacingLeft=4;spacingRight=4;overflow=hidden;points=[[0,0.5],[1,0.5]];portConstraint=eastwest;rotatable=0;whiteSpace=wrap;html=1;" parent="ux4-CTBbILNKBdS3F7yl-3" vertex="1">
          <mxGeometry y="520" width="480" height="50" as="geometry" />
        </mxCell>
        <mxCell id="ux4-CTBbILNKBdS3F7yl-4" value="L&#39;unité \(1\) du corps est respectée&lt;span style=&quot;white-space: pre;&quot;&gt;&#x9;&lt;/span&gt;&lt;span style=&quot;white-space: pre;&quot;&gt;&#x9;&lt;/span&gt;单位元" style="text;strokeColor=none;fillColor=none;align=left;verticalAlign=middle;spacingLeft=4;spacingRight=4;overflow=hidden;points=[[0,0.5],[1,0.5]];portConstraint=eastwest;rotatable=0;whiteSpace=wrap;html=1;" parent="ux4-CTBbILNKBdS3F7yl-3" vertex="1">
          <mxGeometry y="570" width="480" height="50" as="geometry" />
        </mxCell>
        <mxCell id="8Q8LKTZHiUt4oFFiRuyT-1" value="Combinaison linéaire (CL)" style="swimlane;fontStyle=0;childLayout=stackLayout;horizontal=1;startSize=30;horizontalStack=0;resizeParent=1;resizeParentMax=0;resizeLast=0;collapsible=1;marginBottom=0;whiteSpace=wrap;html=1;swimlaneLine=1;" parent="1" vertex="1">
          <mxGeometry y="1040" width="480" height="210" as="geometry">
            <mxRectangle x="80" y="1040" width="480" height="30" as="alternateBounds" />
          </mxGeometry>
        </mxCell>
        <mxCell id="8Q8LKTZHiUt4oFFiRuyT-3" value="D&#39;un nombre fini de vecteurs" style="text;strokeColor=none;fillColor=none;align=left;verticalAlign=middle;spacingLeft=4;spacingRight=4;overflow=hidden;points=[[0,0.5],[1,0.5]];portConstraint=eastwest;rotatable=0;whiteSpace=wrap;html=1;rounded=0;glass=0;" parent="8Q8LKTZHiUt4oFFiRuyT-1" vertex="1">
          <mxGeometry y="30" width="480" height="40" as="geometry" />
        </mxCell>
        <mxCell id="8Q8LKTZHiUt4oFFiRuyT-13" value="\((x_1, ..., x_n)~n \) vecteurs.&lt;span style=&quot;white-space: pre;&quot;&gt;&#x9;&lt;/span&gt;&lt;span style=&quot;white-space: pre;&quot;&gt;&#x9;&lt;/span&gt;Toute CL&amp;nbsp; \( \sum_{k=1}^{n} \lambda_k&amp;nbsp; . x_k \)" style="text;strokeColor=none;fillColor=none;align=left;verticalAlign=middle;spacingLeft=4;spacingRight=4;overflow=hidden;points=[[0,0.5],[1,0.5]];portConstraint=eastwest;rotatable=0;whiteSpace=wrap;html=1;" parent="8Q8LKTZHiUt4oFFiRuyT-1" vertex="1">
          <mxGeometry y="70" width="480" height="50" as="geometry" />
        </mxCell>
        <mxCell id="8Q8LKTZHiUt4oFFiRuyT-8" value="D&#39;un nombre quelconque de vecteurs" style="text;strokeColor=none;fillColor=none;align=left;verticalAlign=middle;spacingLeft=4;spacingRight=4;overflow=hidden;points=[[0,0.5],[1,0.5]];portConstraint=eastwest;rotatable=0;whiteSpace=wrap;html=1;" parent="8Q8LKTZHiUt4oFFiRuyT-1" vertex="1">
          <mxGeometry y="120" width="480" height="40" as="geometry" />
        </mxCell>
        <mxCell id="8Q8LKTZHiUt4oFFiRuyT-9" value="\( (x_i)_{i \in I} \) une famille de vecteurs&lt;span style=&quot;&quot;&gt;&lt;span style=&quot;&quot;&gt; &amp;nbsp;&amp;nbsp; &lt;/span&gt;&lt;/span&gt;Toute CL d&#39;une&lt;b&gt; &lt;/b&gt;&lt;i&gt;sous-famille fini&lt;/i&gt; \( (x_{i_1}, ..., x_{i_n}) \)&amp;nbsp; où \( \forall k \in \) &lt;code&gt;⟦1,n⟧&lt;/code&gt; \( ,i_k \in I \)" style="text;strokeColor=none;fillColor=none;align=left;verticalAlign=middle;spacingLeft=4;spacingRight=4;overflow=hidden;points=[[0,0.5],[1,0.5]];portConstraint=eastwest;rotatable=0;whiteSpace=wrap;html=1;" parent="8Q8LKTZHiUt4oFFiRuyT-1" vertex="1">
          <mxGeometry y="160" width="480" height="50" as="geometry" />
        </mxCell>
        <mxCell id="nukibrV0YJtKpQNif3TN-24" style="edgeStyle=orthogonalEdgeStyle;rounded=0;orthogonalLoop=1;jettySize=auto;html=1;" parent="1" source="nukibrV0YJtKpQNif3TN-2" target="nukibrV0YJtKpQNif3TN-11" edge="1">
          <mxGeometry relative="1" as="geometry" />
        </mxCell>
        <mxCell id="nukibrV0YJtKpQNif3TN-2" value="Définition d&#39;une sous-espace vectoriel \( F \) de \( E \) (s.e.v)" style="swimlane;fontStyle=0;childLayout=stackLayout;horizontal=1;startSize=30;horizontalStack=0;resizeParent=1;resizeParentMax=0;resizeLast=0;collapsible=1;marginBottom=0;whiteSpace=wrap;html=1;" parent="1" vertex="1">
          <mxGeometry y="1310" width="480" height="180" as="geometry">
            <mxRectangle x="80" y="1360" width="360" height="30" as="alternateBounds" />
          </mxGeometry>
        </mxCell>
        <mxCell id="nukibrV0YJtKpQNif3TN-3" value="\( 0_E \in F \) (零元素)" style="text;strokeColor=none;fillColor=none;align=left;verticalAlign=middle;spacingLeft=4;spacingRight=4;overflow=hidden;points=[[0,0.5],[1,0.5]];portConstraint=eastwest;rotatable=0;whiteSpace=wrap;html=1;" parent="nukibrV0YJtKpQNif3TN-2" vertex="1">
          <mxGeometry y="30" width="480" height="50" as="geometry" />
        </mxCell>
        <mxCell id="nukibrV0YJtKpQNif3TN-4" value="\( F \) est stable par \( + \) (加法完备)" style="text;strokeColor=none;fillColor=none;align=left;verticalAlign=middle;spacingLeft=4;spacingRight=4;overflow=hidden;points=[[0,0.5],[1,0.5]];portConstraint=eastwest;rotatable=0;whiteSpace=wrap;html=1;" parent="nukibrV0YJtKpQNif3TN-2" vertex="1">
          <mxGeometry y="80" width="480" height="50" as="geometry" />
        </mxCell>
        <mxCell id="nukibrV0YJtKpQNif3TN-5" value="\( F \) est stable par \( . \) (乘法完备)" style="text;strokeColor=none;fillColor=none;align=left;verticalAlign=middle;spacingLeft=4;spacingRight=4;overflow=hidden;points=[[0,0.5],[1,0.5]];portConstraint=eastwest;rotatable=0;whiteSpace=wrap;html=1;" parent="nukibrV0YJtKpQNif3TN-2" vertex="1">
          <mxGeometry y="130" width="480" height="50" as="geometry" />
        </mxCell>
        <mxCell id="nukibrV0YJtKpQNif3TN-35" value="&lt;div align=&quot;left&quot;&gt;Les termes n&#39;apparaissent qu&#39;une seule fois mais il est possible de les répéter dans une famille.&lt;/div&gt;" style="text;html=1;strokeColor=none;fillColor=none;align=left;verticalAlign=middle;whiteSpace=wrap;rounded=0;" parent="1" vertex="1">
          <mxGeometry x="40" y="1850" width="540" height="50" as="geometry" />
        </mxCell>
        <mxCell id="nukibrV0YJtKpQNif3TN-68" style="edgeStyle=orthogonalEdgeStyle;rounded=0;orthogonalLoop=1;jettySize=auto;html=1;entryX=0.5;entryY=0;entryDx=0;entryDy=0;" parent="1" source="nukibrV0YJtKpQNif3TN-36" target="nukibrV0YJtKpQNif3TN-59" edge="1">
          <mxGeometry relative="1" as="geometry" />
        </mxCell>
        <mxCell id="nukibrV0YJtKpQNif3TN-49" value="&lt;div align=&quot;left&quot;&gt;La somme de deux s.e.v ne fait rien avec l&#39;union.&lt;/div&gt;" style="text;html=1;strokeColor=none;fillColor=none;align=left;verticalAlign=middle;whiteSpace=wrap;rounded=0;" parent="1" vertex="1">
          <mxGeometry x="560" y="691" width="640" height="50" as="geometry" />
        </mxCell>
        <mxCell id="nukibrV0YJtKpQNif3TN-59" value="Propriété de la sommation de s.e.v." style="swimlane;fontStyle=0;childLayout=stackLayout;horizontal=1;startSize=30;horizontalStack=0;resizeParent=1;resizeParentMax=0;resizeLast=0;collapsible=1;marginBottom=0;whiteSpace=wrap;html=1;" parent="1" vertex="1">
          <mxGeometry x="520" y="761" width="680" height="130" as="geometry">
            <mxRectangle x="600" y="800" width="380" height="40" as="alternateBounds" />
          </mxGeometry>
        </mxCell>
        <mxCell id="nukibrV0YJtKpQNif3TN-60" value="\( E_1 + E_2 = \mathrm{Vect}(E_1 \cup E_2) \)" style="text;strokeColor=none;fillColor=none;align=left;verticalAlign=middle;spacingLeft=4;spacingRight=4;overflow=hidden;points=[[0,0.5],[1,0.5]];portConstraint=eastwest;rotatable=0;whiteSpace=wrap;html=1;" parent="nukibrV0YJtKpQNif3TN-59" vertex="1">
          <mxGeometry y="30" width="680" height="50" as="geometry" />
        </mxCell>
        <mxCell id="nukibrV0YJtKpQNif3TN-61" value="\( \sum \limits_{i \in I} E_i = \rm{Vect} \left ( \bigcup \limits_{i \in I} E_i \right ) \)" style="text;strokeColor=none;fillColor=none;align=left;verticalAlign=middle;spacingLeft=4;spacingRight=4;overflow=hidden;points=[[0,0.5],[1,0.5]];portConstraint=eastwest;rotatable=0;whiteSpace=wrap;html=1;" parent="nukibrV0YJtKpQNif3TN-59" vertex="1">
          <mxGeometry y="80" width="680" height="50" as="geometry" />
        </mxCell>
        <mxCell id="nukibrV0YJtKpQNif3TN-70" style="edgeStyle=orthogonalEdgeStyle;rounded=0;orthogonalLoop=1;jettySize=auto;html=1;entryX=0;entryY=0.154;entryDx=0;entryDy=0;entryPerimeter=0;" parent="1" source="nukibrV0YJtKpQNif3TN-26" target="nukibrV0YJtKpQNif3TN-59" edge="1">
          <mxGeometry relative="1" as="geometry">
            <Array as="points">
              <mxPoint x="600" y="1706" />
              <mxPoint x="600" y="1541" />
              <mxPoint x="500" y="1541" />
              <mxPoint x="500" y="781" />
            </Array>
          </mxGeometry>
        </mxCell>
        <mxCell id="nukibrV0YJtKpQNif3TN-79" style="edgeStyle=orthogonalEdgeStyle;rounded=0;orthogonalLoop=1;jettySize=auto;html=1;" parent="1" source="nukibrV0YJtKpQNif3TN-71" target="nukibrV0YJtKpQNif3TN-75" edge="1">
          <mxGeometry relative="1" as="geometry" />
        </mxCell>
        <mxCell id="nukibrV0YJtKpQNif3TN-71" value="Définition de la somme directe" style="swimlane;fontStyle=0;childLayout=stackLayout;horizontal=1;startSize=30;horizontalStack=0;resizeParent=1;resizeParentMax=0;resizeLast=0;collapsible=1;marginBottom=0;whiteSpace=wrap;html=1;" parent="1" vertex="1">
          <mxGeometry x="520" y="931" width="680" height="130" as="geometry">
            <mxRectangle x="600" y="1000" width="200" height="30" as="alternateBounds" />
          </mxGeometry>
        </mxCell>
        <mxCell id="nukibrV0YJtKpQNif3TN-72" value="Soit \( E \) un \( \mathbb{K} \).e.v. , \( E_1~\text{et}~E_2 \) deux s.e.v. de \( E \)" style="text;strokeColor=none;fillColor=none;align=left;verticalAlign=middle;spacingLeft=4;spacingRight=4;overflow=hidden;points=[[0,0.5],[1,0.5]];portConstraint=eastwest;rotatable=0;whiteSpace=wrap;html=1;" parent="nukibrV0YJtKpQNif3TN-71" vertex="1">
          <mxGeometry y="30" width="680" height="50" as="geometry" />
        </mxCell>
        <mxCell id="nukibrV0YJtKpQNif3TN-73" value="\( E_1 \oplus E_2~\text{à la place de}~E_1 + E_2~( E_1~\text{et}~E_2 \text{ sont en somme directe} ) \) si tout élément de \( E \) s&#39;écrit de manière unique sous la forme \( x_1 + x_2 \), où \( x_1 \in E_1~\text{et}~x_2 \in E_2 \)." style="text;strokeColor=none;fillColor=none;align=left;verticalAlign=middle;spacingLeft=4;spacingRight=4;overflow=hidden;points=[[0,0.5],[1,0.5]];portConstraint=eastwest;rotatable=0;whiteSpace=wrap;html=1;" parent="nukibrV0YJtKpQNif3TN-71" vertex="1">
          <mxGeometry y="80" width="680" height="50" as="geometry" />
        </mxCell>
        <mxCell id="nukibrV0YJtKpQNif3TN-75" value="Propriété" style="swimlane;fontStyle=0;childLayout=stackLayout;horizontal=1;startSize=30;horizontalStack=0;resizeParent=1;resizeParentMax=0;resizeLast=0;collapsible=1;marginBottom=0;whiteSpace=wrap;html=1;" parent="1" vertex="1">
          <mxGeometry x="520" y="1091" width="680" height="180" as="geometry" />
        </mxCell>
        <mxCell id="nukibrV0YJtKpQNif3TN-76" value="\( E_1 \cap E_2 = \{0_E\} \Leftrightarrow E_1 \oplus E_2 \)" style="text;strokeColor=none;fillColor=none;align=left;verticalAlign=middle;spacingLeft=4;spacingRight=4;overflow=hidden;points=[[0,0.5],[1,0.5]];portConstraint=eastwest;rotatable=0;whiteSpace=wrap;html=1;" parent="nukibrV0YJtKpQNif3TN-75" vertex="1">
          <mxGeometry y="30" width="680" height="50" as="geometry" />
        </mxCell>
        <mxCell id="nukibrV0YJtKpQNif3TN-77" value="\( \forall (x_1, x_2) \in E_1 \times E_2, x_1 + x_2 = 0_E \Longrightarrow (x_1 = 0_E~\text{et}~x_2 = 0_E) \)" style="text;strokeColor=none;fillColor=none;align=left;verticalAlign=middle;spacingLeft=4;spacingRight=4;overflow=hidden;points=[[0,0.5],[1,0.5]];portConstraint=eastwest;rotatable=0;whiteSpace=wrap;html=1;" parent="nukibrV0YJtKpQNif3TN-75" vertex="1">
          <mxGeometry y="80" width="680" height="50" as="geometry" />
        </mxCell>
        <mxCell id="nukibrV0YJtKpQNif3TN-78" value="\( \bigoplus \limits_{i \in I} E_i~\text{à la place de}~\sum \limits_{i \in I} E_i \) (omit)" style="text;strokeColor=none;fillColor=none;align=left;verticalAlign=middle;spacingLeft=4;spacingRight=4;overflow=hidden;points=[[0,0.5],[1,0.5]];portConstraint=eastwest;rotatable=0;whiteSpace=wrap;html=1;" parent="nukibrV0YJtKpQNif3TN-75" vertex="1">
          <mxGeometry y="130" width="680" height="50" as="geometry" />
        </mxCell>
        <mxCell id="nukibrV0YJtKpQNif3TN-87" value="" style="shape=image;html=1;verticalLabelPosition=bottom;verticalAlign=top;imageAspect=0;image=data:image/jpeg,/9j/4AAQSkZJRgABAQAAAQABAAD/2wBDAAsJCQcJCQcJCQkJCwkJCQkJCQsJCwsMCwsLDA0QDBEODQ4MEhkSJRodJR0ZHxwpKRYlNzU2GioyPi0pMBk7IRP/2wBDAQcICAsJCxULCxUsHRkdLCwsLCwsLCwsLCwsLCwsLCwsLCwsLCwsLCwsLCwsLCwsLCwsLCwsLCwsLCwsLCwsLCz/wAARCAFoAOYDASIAAhEBAxEB/8QAGwABAQEBAQEBAQAAAAAAAAAAAAEGBQQDAgf/xABLEAABBAIBAgIGBQcHCAsAAAABAAIDBAURBhIhEzEUIkFRYXEVIzKBkUJSYqGiscEHFiREgoPCM2NkcpKTs9EXNDU2RXOEo7Lw8f/EABUBAQEAAAAAAAAAAAAAAAAAAAAB/8QAFhEBAQEAAAAAAAAAAAAAAAAAABEB/9oADAMBAAIRAxEAPwD+t9k7IqgnZOyIgdk7IqgnZOyKoJ2TsiIHZOyIgdk7IiB2TsiqCdk7IqgnZOyIgdk7IqgnZOyIgdk7KqIHZOyIgdkREBERAREQEREBERAREQEQrkZTOV8fJHShhlvZexE6Srjqhb472g9Ilmc49DIt9i9xA7HWyNIOsXBocSQAASSToADvskrhP5ViXyOhxsV3MTMeI5G4WD0iGMkb+stvcyqPiPF38F8mYG5lSJuS2WWWB3VHiafiR4qHRaR4wOnzOGgdv9XudMHt0EUMMEccMMbI4o2hsccTWsYxo7ANa3QA+5BwDl+YE7ZxJ3h+6bM0WTa/1GBzN/3i9FPkVSa1Fj71a3i8jKCYa2TbGwWdAdXos8TnQv1vyD9/D3e7IZTF4uITZG5Xqxu2IzPI1rpHAb6Ymfac74AErh3clSzUE9T+bGaylKVoO56cNOu/t2ew5KWGQH3ODfvQajaL+bVuUZbC+I9+Nz93A1rNmnbdcZWsXcXLXf0SN9KqyvD42nf+UDTogh7gt7jMnjcxThv46wyetL1Bj2dQII82ua4BwI9oIQexERAREQEREBERAREQEREBEVQRERARFUERFUERN6BWeyd+9duHBYeTw7bWMflbzQHNxdeQbaGg9jO8f5Np8h6x7a6guRyt+1Zmw+B6DkGdLb9+VviVMSx3fb2js+cj7Ee/i7QGne7FYiji45fB8WSxYe2S7csu8S3claNdc8p7nXsA0B5ABffHY6jiqkVOnH0Qx7cS4l0kkjjt8krz3LnHu4n/APF/IUsbWltXJWxQMABcduc5zjprI2NBc5zj2aACSg9EssUMcs0sjI4omPllkleGRxxsHU573O7AAdyVn/pLMZw9ODHoeNPSDmbcPW6dpBJ+jasmtjy+seA3z0147r8w46/nZRcz0RhxzXsfj8I7TmgNIc2fKaJa+QnREfdrO2+p3caUDQ0g5VDA4mhL6U2OSzkHNDZcjfebN+Qa0R40ndo/RaGj3ALq67FEPtQcDCdLMtzquwdLG5mpYGvLrsYuo9/6xs/NfCtEzA5+GhAOjE59tmxVgaPq6eUrt8WZkQA0GSs2/W+zo3a11r7cef49vmVzp0JuRT12H85tCrWon9pjgvxykujPFJ2kh0PKsKB8rJkpuH4PKDRog8kQERVBEREBFVEBERAREQERVBEREBEVQREXgy2TrYijYuzh7wzpZFDEC6azYkPRFBC1uyXPJAHb4+Q2A8ebydqGSricV0OzeRY91fqb1so1mkNkv2B5dLN6YD9pxAG9HXrxOLqYmnHUr+I713zWJ53F9i3ZlPVLYsSHuXvPcn7h2AA8uCxlmqyzeyTmvzOTe2fIPZrw4Q0fVU4P83ED0jv3O3ebu3XllhhimmmkjjiijfLLJK4MjjjYC5z3ud2AA7koPhfv1MbVsXLcgjrwMDnu7lxJIa1jGjuXOJAaB3JIHtXJx9C5kLMWazMRZNH3xWOcepmNjcCPEkA9U2HA+sfyfsj2l3xx8UufuVs7bbIMbXPXx6lI0tadjX0nYY4b8RwP1IP2Wnf2n+rpgAAgBERAXxt2YKVW5cnJbBUrzWpnDuRHCwyOOvkF9lneT/0xuJwLe5zl1jLOi4FuNqEWrbtt9hAbH/eoPRxatYrYHFCzv0qzE/IW+oacLN6R1yRpHwLyPuXn5Kwz2OG1Wn1peTUpy32mOlXsXHH7ulv4rQjy8tLPTf03mGOjDQY8Fh7Nt7g7sLWTkFeNpA9oZHIf7XxQaIeSIiAiKoIiIgIqogIiICIiAiKoIiqiAiqIPyVmKg+n8w7JO27EYOeapiRt3h28k3cVi7rQaWx94oj379ZBXr5JdtRwU8ZjpPDymcmdQpyNPrVog0vs3NBwP1TNkaP2i33rqUKdXHU6lGrH4dapDHXhZ5kMY0NGz7SfMn2k79qD0rMXCeR5KTEt6XYXFyxnNubtzbt1upY8cD9noZsPn8/yW9tle7PZGzUgrVcf0Oy+Um9CxjHlpax5BdJZkad+pC3b3dj5AflL2YrH18XRrUYDI5kLT1yzEulnleS+SaVx83vcS5x95QewDSqqIIiqiCHy+KzmEIymTy3IPtVu+GwxH2XU60hM87elxGpZN6PtETV9+RWbJiqYig9zMjm3vqRSs6i6pUa3qtXOxH2GnTO/2ntXWp1q9KrVqVoxHXqwxwQMG/VjjaGNHdB9XFrWuLiGtAJc5xAAA7kklZ7irXWYMlnpGlsmfvSXYepnQ9uPiaKtNrh/qND/AO8K/XKJJbFepgaznNtchldSc5g26HHMAfdn7gt7M9QfGRq70MUUEUUMTAyKJjYomNGmsYxoa1oHuAACD9oqogIqiCIiICKogiIqgiIiAqoqgiKqICKrkciv2Mdh8hYqgm46NlSg1ui43bcjasGgfP1nAn4BB4MQDlMxms67Zr13OwOHPfpMFaTdudunFp8SQFoPbtEPv0vwXixWPgxONx2Ng7xUq0NcO0Gl5Y3TnkDttx24/Nc3k80slaphashZc5BOcc17C3rgp9BkuWAHfmxggfpPag+WEDsrev8AI37MEvVjsEHdWmY6F/1lloOu87wXb19lrFpF84IYa8MMEEbY4YY2QwxtGmxxxtDGtaPcAAF9EBFUQRfG1YrVK9mzZlbFXrwyTTyP+yyNgLnOOu/ZfbfmszNvkmTNTpDsDh7LHXn7PRksnA4ObWDR5xQnTpNnRdpuvUOw+2BrWbUtrkV+F0VvKMjjpwStAkoYph6oa7u5Ie7vJL383AfkLvPcxjXue5rWtaXOc4gNa0DZJJ9i/WgB+vus1nZH5e5Dxiq9wjniZa5BNGXgwYwu02sHtIAfYILfPs0OOu4QMA1+UuX+TytcI7rBRwjXtLTHiYX9Qm0WtIM7tyHY+yGe5aVfmNjI42RsY1jGNDGMYA1rGtAAa1o7AD2L9oIiqiAqiIIiIgqiqIIiKoIiIgKqIgIiICzuab6ZnOG47pDoorN3O2O/dox8Qhh2Pd1ytP8AZWiWdjZ4nNLshP8A1TjFGJo9xtXp3v18/Db+CDRLO0AcjyPN5A+tXw8UeBpacSz0h4ZbuyBpHnsxR7/zZXdsTw1YLFmZ3TFXhlnld7mRtL3H8AuRxOGWLAYuWfvZvsflrbtaJsZCR1x+x8OvX3IO4iIgIfJCQPcuDlMtbltOweDLH5Z0bH3LL2+JWw9eQbbNYHkZHDvFH5nzOmjZD8ZW7av2ncfxMzorRjY/L3YT62KqSj1Q13kJ5Rvwx5geudADq7FGlTx1SrRpwthq1Y2wwRt8msb7ye5J8ySdkkk9yvhicVSxNRtWsJDuSSezNO7rsW7Mh3JYsyHu57j3J+4aAAH2v36WNqWr12VsVWtH4krz7BsNDWgdy5x0GgdySB7UHmzWVbiqoeyF1m7ZkbUxtOMgSW7kgPRHsnQaPtPcfJoJ+B/OExLsZWebM3pGSuzOuZS0d/0i08AHo35RsGmRjQ0Gjt37+PEUb1u47kGWjdHcljMONpP0W4qk49XQR5eNJ2MzvgG+Te+hQFVEQEREBVREBERBVERAREQEREDSaREDSaREBZ5jvC5lcYWnV3jVKSNx8nOp3Z2SNHyErD960K4WfqXi7F5fHRma/hppZRXB0blKdojs1m9wOpwDXM3+Uwe/sH55jM6DjHJC0DcuOmqjflu1qt/iXcijZFHHEwAMia2NgHkGsHSAFluQXaea4fnrePlbLHFVfYcO7JIpKT2WnxSsd6zXt6e4I3/HVRvbIxkjDtkjWvY4eTmuHUCEH60n71xrfJcLWmdThlfkMgDr0DEs9LtA9QafEDD0MA3sl72j4ryHG5zOaOdcKWOd/wCDUJi507S0AtyNxmi4fa2xmm9+7noE2VvZiZ9HjzmeFHtl7NuaJKtZ29GGk0+rJMPMnuxvbZJ9VdXGYujiqwr1Y3AGSSeeWV5ksWbEh3JPYld6znuPck/qA0PXDBXrxRQQRRxQxMbHFFE1rI42NGg1jWgAAewALx5XL4/EQNmtPeXSkx1a1dhlt3JvZDWhb6znHt8BvZIHcB97t6hjqlq9dsRwVa0ZkmlkJ6WN3odh3JJ0GgDZJAGydLg0qd3O3Kuby8EsFOq8S4HFTDToXaIF++zyM5B+rb3EYP5xJH7qYvIZS1VyvII2t9Gk8fGYljhJWoS60LFhw9V9gew+TO/T3PUtJ5IGtJpEQNJpEQNJpEQNJpEQNJpEQNJpEQNJpEQNIiICIiAiIgIiIOBlePMsTTZDGSR08pLH4Vl7o+unkYgC3wMjA0jqaRtocCHN32PbSy/HsVjZQzj/ACeG/wDS9TrEFa7lchLRvU2E+HLTjMwhc1rdNc0N7dPcDyb/AEcke3SznI7nFSxmNylc5G08eNXxtOF9nIlwB1LC2HT2HW9PL2fNB2qlHHUIRXo1a9WBpLhFViZCzZ8yWsAG19LFirVikntTwwQxjb5bEjYo2j3ue8gLAs49zS85pq5HK8fpdTvUuZixlbpYPshsYd4TBr2eM4/uXQi/k7wErmS5m1l81O3v15S9MWg/otiLTr4FxQfu5zSrLtmJlxzIi4sOVzdhlPGtI2T4Eb3NsSu7HQa0N/TXkxeX4VVsS3HZW3nM4+MRT5CKhetv6N7MVVtWF0MceyT0tPt7k+a9+Q4hgatd13D0q+PyWPgnmpz12Dpc5rHO8OzG7bXsd5HYJ9xBXtoZ116fjMMUMYGUwT83ZHW7qrR6rNjY0AaO3SOHf8z8A8NrnGNpGsJsRyNos2GVaxmxwrCaZ59VjPTJI17vpzNSb8HiebPu8efEQfj1Wiv1y6ON3GOUBzQQMReeN99OZGXtP3EAj5LsxEuhid+U6Njj8y0FBmKfJ89kqla9j+KW56thpfFK7J4qPqaCW/ZMhdvYIIIHklflGas2L1WPimQdYoSRx3IxfxYMZkb4jHN8WVpLXDu0jsdHv27dHDY+7jJc9Xc1v0dNk5L+N08F0bLbRNPCWAAANk6y3v5O+CtKreGe5FfmhEdeWvh6FN3U0mdtZs00kpAOwOqXpG/zUHxOeysYJm4nyAf+Q7Ez/wDwtr5t5XAD/ScHyeqB5umw9iVo+bqhkC0f3JoBBno+acOdJ4T8rFXk3rpyENmifxtxsH612Kt/G3m9dG5UtMHfqqTxTN/GNxX3dHHI0tka17T2LXgOaR8QeyzGXxX8m8UtePL1cHTns9b4ZHmKhNIWaBLZ4ix2xsflINTsJ2WZHHrcLfGwfJsvXZIGGKO3LHlqPR7A1tvcmj8Jgqcny/GE/SeIhyVVvUTb4853pDWjsC/H2XdZPv6JXfL2INKi8GNy+Jy0L5qFqOZsTzHO0dTJoH7I6J4ZAJGu7HsWhe9AREQEREBERAVURAREQEREHCzV2++3j8JipGxX78c1mxbLWP8Ao/Hwuax8wY7ze4kMjGiN7J+z39eLw+MxET46kREkzvEtWZnumt25SSTLZnf67nEknufb2AHZZrJZB2L5uLczN40cZpwXpW+dNst+wWWHjzMYc0B59nWD5Alam9VhydTwW27cMc3hStnxtp9eYtB6x0TRd+k+3XmEHtHT71zcjma2Klq+mxTR0ZiGPyGmuqVpXODWMskHqYHdgHFvTs6JG1zW8YuQHrp8o5PHIBpvpNuC9Fv3ujuQu3/tL4zXM1iGiLkgo5HC2AKk+Trw+A6ATfVn6RqOLo/DdvpLmu0Pa3vtBq+x35a8jtYfhlSxDkM7HYjI+goanGKkjiSZIK81i4H/AHtkh/BdvijnjEeive+Q43IZXEsfIduMNG5LXiBPtIaGjfwXc0B7EHK5LBYtcf5FWrRPlnnxd6KGOMbe+R8Tmta0e8rpQgiGFp7FsbGke4hoBC+ia0gKqIgKqIgL8SwwTsdFNHHLG8aeyVrXscPcWuBH6l+0QZ+TimHie6bFG1hrDnteX4aY14nOaO3iVHB1Zw+cS4c+S5TBk34+zYmuY7DegWMtdwdOOO8/x9yRRWK73P2wBpdN4TdkOGgO63i4912MwMPIM49kpfY9HntNYXPfPNHEypBFCzyDneq0fEoPNaxuMzbK2ZxVpkGRdF1UMtR6XF7PZHYA9WSLY05rvLvrRXsweTlyVSQ2IWwXqVmbH5KBmyyO3Brq8Mu7ljgWvYfc4LKQssYLNx5HM5BlOteo5TNXMdQkdFQq24nVqunRtO5XvEmuw9Z42G78uvw2aa5DyPIzRTQy3+RZJ5hsANlgZXbFUZE8DttoZo/H5INUoiICIiAiIgIiICIiAiIgzk0fTzKk5wBbb4vfgII2HGverv0fZ5PKOwWSxjnScauRVoSXOdicg18uLLnEuJrlh8aLZJPqkt/QVyjnR8p4S4fZmq8jrH4l0VacD9grRIM3/Od9LYz+JyGM6dl1mOM5DHEdWhqzTaXDf6cTV0WWePcgqW60Nylfq2YJK9llWyyT6qVvS5rvBd1A6PwIXS0P/pK5N7jXGci8y3MTSknJDvHZGIrOx3BE8PTJv+0g83FI2R46/wBG/Ddn+RGLqLiehuSnjGy4k+z2rQdlmouJxUtDE5nPY6Npe5kEVxtqs1z3F7iIb7JR3JJPfuT8V+2Y/m8HUY+R0bQ/JbksOwH730Z4h+wg0SLOtd/KLGfXh4tYaN/5ObJVHH7nRzD9a/br/N2D/u7i5SPbFnHtB+QkpBB30WcdlubADXE4HH2hucrdv9qAIMrzYga4nWBPbT87XGu+u5bXKDRouALvOJBpuBxELtec2bmeN/KKl/Ffgf8ASNI7u7itdnwbk7jvx3CEGi7J2WdOK5jNJ1T8pEMZ848ZiKkXb4PuPnd8lP5pY+cSNyeRz2SZIfWjvZSwyA/3FMxR/soPfkeQcdxXU2/lKcErdfUGVr7J2dDorx7lP3NK5r8xmcoDHhsDKYy71b/IWmjSDmaeySOsQbT+/l6jPLzHmuvQwuCxf/Z2No1T09JfXgjZI4fpSAdR+8r36A9iDP1ONxenQ5fMWDlMtEOmvLLEyKrSb1l/TTrNJaNfnOLndvMKcQc2XDusj+t5bkFon39eTsgH8AFoSQBs6AHcn4Dus9wphZxXjm/OSmLDviZ5HzE/tINCiIgIiICIiAqoiCooiCooiDP54NjyvBbR1tmcsVR/6nGW2/wC0KzfKg4N4rMP6vyrBuJ9wmkfUJ/bWjQVFEQVFEQVFEQVFEQFVEQVFEQVFEQeTKTejYzLWN69Ho3Jt+7w4XOXk41GYuOcYjIAczDYxrh+l6NHtfnlLxHxnlTifPC5No+b672D966FKHwKdGDsPBrV4te7oja3+CD0ooiCooiAiIgIiICIiAiIgz3MXCPByz671shg7IP5vhZOs4u/Da0P/NZ/mURm4vyVo82Y2xONewwanB+7pXdjeJGMeD2e1rx8nAFB+0REBERAREQEREBERAREQEREGc5sT/NfNsG9zsq1Br/SbUNf/EtGPL5EhZ7lha7G067vK5neO1vn1ZKB/wDhWgH8T+9BUREBERAREQFVEQEREBVREHM5BE6fBcihb5zYjJRDXnt9aRoX7wc3pGGwdje/HxmPm3/r12OXtljbNHLE77Msb43fJzS0ri8PlE3F+LvHsxVOL74oxF/BB3UREBERAREQFVEQFVEQEREBVREGc5Q0vk4dEPKTleMLvlBDYs/vYFoh5BZ/NP6s5wSuRsOyeSsn4eBi7DQfxeFoUFUREBERAREQEREBERAREQPcs7wtpj49SgPnVt5apr3CDIWIwPwAWiWe4q8mHkcR/q/KeQRge5slo2R+p6DQoiICIiAiIgIiICIiAiIgIiIM9kWeLyvh+u/o+O5HYcPdv0OAH9ohaFZ1zi/m9dnsrcVsv+Rs5CJo/wCGVokBERAREQEREDabREDabREDabREEPkfkVwMAGw5DnFcEbHIGWdD/SsdTl/5rQLN4nqZyjnEZ8pWceuD3EvqyVyR/uwg0m02iIG02iIG02iIG02iIG02iIG02iIG02iIM/XDZeYZuUa3W4/hax+ctq7N/ALQbWcxG38n53IR2Y7AVAT7mUnT6/8AcWjQNptEQNptEQNoiICqiqCIqogKoiCLOwubHzHKRAa9I43iZz8XQ3bkRP3BwWiWemZ4fM8ZL5CzxvJwfAmvdqS/4z+KDRKKqICKogiKqICqIgiqiqCIqogIfI/JVQ+X4IM/x9zZchzix+U7kPoxPwrY6nFr7u60CzvFGERcjlPfx+U8heD7wyya4/UwLRIKoqiCIiqCIiICqiqCIqogKoiCLO5VxZyng7tkCWHkVT5l9eGwP+GVoln8/wBEeS4NZJ9ZufkrD2drONuM/gEGgREQEVRBEVUQFURBFVFUERVRAT3fd+9Vfl72sY97j6rGuefk0bQZ/hjzNx+pYPnZu5m1v3ibJWZAfwIWhXA4ZEYeLcYafN2Nrzf74eL/ABXfQVRVEERFUEREQERVBEREBEVQRZ3lbXCLjU4/q3KcDI4+5ss5rE/trRLPcyf4WAtzjW693C2QT7BDk60hP4AoNCiD2/MogIiICIiAiKoIiKoIiIgLn5uY1sLnrAJBr4vITAj2eHXe5dBcTlsoh4xyl58jh78X3ywuiH70Ho4/EYcDxyE+cOIxsZ+ba0YK6a+deNsMFeFvZsUMcY+TGhq+iAiqiAiIgIiICIqgiIiAiKoIuDzGHx+L8nZ+bi7c33wN8b/Cu8udnoTYwnIIB5z4rIwj+8rvag90LxJFHIPKRjJB/baHL9rm4CY2MHgJz5zYrHSn5vrRuK6SAiIgIiICIqgiIqgiIiAs5zYOfxrKRNGzPNi6uveLF+vCf1ErRrPcrf8A0TEQefpfI+OwEe8C9HMd/wCyg0I/if3og8vxRARVRAREQEREBERAREQEREBfl7GyMex3dr2uY4fBw0V+kKDg8QkL+N4SJ7SyalW+jLMbvtR2KLnVJGuHzau8szb8Tjl+5lWtdJg8i9s+YZE0mTH2mtEf0gxjO5jcABOANjpD+43rRwzQ2Io5oZGSwysbJFJE9r45GOGw5j2bBB9ndB+0REBERAREQEREBERAWc5EG2Mjwii0nxnZ36TI0SPR8fUmfI4n4OfGB8XBdfI5GhjKstq7MIoWkMb5uklld9mKFg9Zz3fkgd1zMNTvT27OfykZiuW4RVpU3dO8djmv8QQuLfOR506U7PcBvkzuHfHkEREBERAREQEREBEVQRERARFUERFUE1sFfGtVqU4mwVIIa8DS4tirxMijaXHZ0xgDe57nsvsiAiIgIiICIqgiIqgiIiD4y1as0taaaCGSWs5z60kkbHyQOc3pc6JzhsEjsdaX20iqCIiICKqICIiAiIgdk7IiB2TsiIHZOyIgdk7IiB2TsiIHZOyIgdk7IiB2TsiIHZOyIgdlC5rQSSAB3JJ0B95REDY1tNhEU3YKptEUoqIitBERKHZERUf/2Q==;" parent="1" vertex="1">
          <mxGeometry y="1850" width="40" height="50" as="geometry" />
        </mxCell>
        <mxCell id="nukibrV0YJtKpQNif3TN-11" value="Propriété de sous-espace vectoriel de \( E \)" style="swimlane;fontStyle=0;childLayout=stackLayout;horizontal=1;startSize=30;horizontalStack=0;resizeParent=1;resizeParentMax=0;resizeLast=0;collapsible=1;marginBottom=0;whiteSpace=wrap;html=1;" parent="1" vertex="1">
          <mxGeometry y="1551" width="580" height="300" as="geometry">
            <mxRectangle x="80" y="1600" width="270" height="30" as="alternateBounds" />
          </mxGeometry>
        </mxCell>
        <mxCell id="nukibrV0YJtKpQNif3TN-12" value="Si \( F_1 \) et \( F_2 \) sont deux s.e.v de \( E \), alors \( F_1 \cap F_2 \) est un s.e.v de \( E \)." style="text;strokeColor=none;fillColor=none;align=left;verticalAlign=middle;spacingLeft=4;spacingRight=4;overflow=hidden;points=[[0,0.5],[1,0.5]];portConstraint=eastwest;rotatable=0;whiteSpace=wrap;html=1;" parent="nukibrV0YJtKpQNif3TN-11" vertex="1">
          <mxGeometry y="30" width="580" height="50" as="geometry" />
        </mxCell>
        <mxCell id="nukibrV0YJtKpQNif3TN-25" value="Si \( (F_i)_{i \in I} \) sont s.e.v de \( E \), alors \( \bigcap \limits_{i \in I} F_i \) est un s.e.v de \( E \)." style="text;strokeColor=none;fillColor=none;align=left;verticalAlign=middle;spacingLeft=4;spacingRight=4;overflow=hidden;points=[[0,0.5],[1,0.5]];portConstraint=eastwest;rotatable=0;whiteSpace=wrap;html=1;" parent="nukibrV0YJtKpQNif3TN-11" vertex="1">
          <mxGeometry y="80" width="580" height="50" as="geometry" />
        </mxCell>
        <mxCell id="nukibrV0YJtKpQNif3TN-26" value="&lt;p style=&quot;line-height: 120%;&quot;&gt;Si \( F_1 \) et \( F_2 \) sont deux s.e.v de \( E \), alors \( F_1 \cup F_2 \) n&#39;est jamais un s.e.v de \( E \) sauf si \( F_1 \subset F_2 \) ou \( F_1 \supset F_2 \).&lt;/p&gt;" style="text;strokeColor=none;fillColor=none;align=left;verticalAlign=middle;spacingLeft=4;spacingRight=4;overflow=hidden;points=[[0,0.5],[1,0.5]];portConstraint=eastwest;rotatable=0;whiteSpace=wrap;html=1;" parent="nukibrV0YJtKpQNif3TN-11" vertex="1">
          <mxGeometry y="130" width="580" height="50" as="geometry" />
        </mxCell>
        <mxCell id="nukibrV0YJtKpQNif3TN-27" value="\( \mathrm{Vect}(A) =&amp;nbsp;\bigcap \limits_{F \in \mathcal{F}} F \)&lt;span style=&quot;&quot;&gt;&lt;span style=&quot;&quot;&gt;&amp;nbsp;&amp;nbsp;&amp;nbsp;&amp;nbsp;&lt;/span&gt;&lt;/span&gt;Le plus petit s.e.v de \( E \) contenant \( A \) où \( \mathcal{F} = \{ F \) s.e.v de \( E \) \( , F \subset A \} \).&lt;br&gt;\( \mathrm{Vect}(A) =&amp;nbsp; \{ x \in E, \exists n \in \mathbb{N}, \forall k \in \)  &lt;code&gt;⟦1,n⟧ &lt;/code&gt;\( , \exists \lambda_k \in \mathbb{K}, \exists a_k \in A, x = \sum \limits_{k = 1}^{n} \lambda_k . a_k \)\( \} \)" style="text;strokeColor=default;fillColor=none;align=left;verticalAlign=middle;spacingLeft=4;spacingRight=4;overflow=hidden;points=[[0,0.5],[1,0.5]];portConstraint=eastwest;rotatable=0;whiteSpace=wrap;html=1;" parent="nukibrV0YJtKpQNif3TN-11" vertex="1">
          <mxGeometry y="180" width="580" height="70" as="geometry" />
        </mxCell>
        <mxCell id="nukibrV0YJtKpQNif3TN-13" value="Soit \( A \in E \),&lt;span style=&quot;white-space: pre;&quot;&gt;&#x9;&lt;/span&gt;\( \mathrm{Vect}(A) = E \Longrightarrow A \) est une &lt;i&gt;partie génératrice&lt;/i&gt;.&lt;br&gt;Soit \( (a_i)_{i \in I} \in E^I \) une famille de vecteurs,&lt;span style=&quot;white-space: pre;&quot;&gt;&#x9;&lt;/span&gt;\( \mathrm{Vect}(a_i, i \in I) = E \Longrightarrow A \) est une &lt;i&gt;famille génératrice&lt;/i&gt;." style="text;strokeColor=none;fillColor=none;align=left;verticalAlign=middle;spacingLeft=4;spacingRight=4;overflow=hidden;points=[[0,0.5],[1,0.5]];portConstraint=eastwest;rotatable=0;whiteSpace=wrap;html=1;" parent="nukibrV0YJtKpQNif3TN-11" vertex="1">
          <mxGeometry y="250" width="580" height="50" as="geometry" />
        </mxCell>
        <mxCell id="nukibrV0YJtKpQNif3TN-88" value="" style="shape=image;html=1;verticalLabelPosition=bottom;verticalAlign=top;imageAspect=0;image=data:image/jpeg,/9j/4AAQSkZJRgABAQAAAQABAAD/2wBDAAsJCQcJCQcJCQkJCwkJCQkJCQsJCwsMCwsLDA0QDBEODQ4MEhkSJRodJR0ZHxwpKRYlNzU2GioyPi0pMBk7IRP/2wBDAQcICAsJCxULCxUsHRkdLCwsLCwsLCwsLCwsLCwsLCwsLCwsLCwsLCwsLCwsLCwsLCwsLCwsLCwsLCwsLCwsLCz/wAARCAFoAOYDASIAAhEBAxEB/8QAGwABAQEBAQEBAQAAAAAAAAAAAAEGBQQDAgf/xABLEAABBAIBAgIGBQcHCAsAAAABAAIDBAURBhIhEzEUIkFRYXEVIzKBkUJSYqGiscEHFiREgoPCM2NkcpKTs9EXNDU2RXOEo7Lw8f/EABUBAQEAAAAAAAAAAAAAAAAAAAAB/8QAFhEBAQEAAAAAAAAAAAAAAAAAABEB/9oADAMBAAIRAxEAPwD+t9k7IqgnZOyIgdk7IqgnZOyKoJ2TsiIHZOyIgdk7IiB2TsiqCdk7IqgnZOyIgdk7IqgnZOyIgdk7KqIHZOyIgdkREBERAREQEREBERAREQEQrkZTOV8fJHShhlvZexE6Srjqhb472g9Ilmc49DIt9i9xA7HWyNIOsXBocSQAASSToADvskrhP5ViXyOhxsV3MTMeI5G4WD0iGMkb+stvcyqPiPF38F8mYG5lSJuS2WWWB3VHiafiR4qHRaR4wOnzOGgdv9XudMHt0EUMMEccMMbI4o2hsccTWsYxo7ANa3QA+5BwDl+YE7ZxJ3h+6bM0WTa/1GBzN/3i9FPkVSa1Fj71a3i8jKCYa2TbGwWdAdXos8TnQv1vyD9/D3e7IZTF4uITZG5Xqxu2IzPI1rpHAb6Ymfac74AErh3clSzUE9T+bGaylKVoO56cNOu/t2ew5KWGQH3ODfvQajaL+bVuUZbC+I9+Nz93A1rNmnbdcZWsXcXLXf0SN9KqyvD42nf+UDTogh7gt7jMnjcxThv46wyetL1Bj2dQII82ua4BwI9oIQexERAREQEREBERAREQEREBEVQRERARFUERFUERN6BWeyd+9duHBYeTw7bWMflbzQHNxdeQbaGg9jO8f5Np8h6x7a6guRyt+1Zmw+B6DkGdLb9+VviVMSx3fb2js+cj7Ee/i7QGne7FYiji45fB8WSxYe2S7csu8S3claNdc8p7nXsA0B5ABffHY6jiqkVOnH0Qx7cS4l0kkjjt8krz3LnHu4n/APF/IUsbWltXJWxQMABcduc5zjprI2NBc5zj2aACSg9EssUMcs0sjI4omPllkleGRxxsHU573O7AAdyVn/pLMZw9ODHoeNPSDmbcPW6dpBJ+jasmtjy+seA3z0147r8w46/nZRcz0RhxzXsfj8I7TmgNIc2fKaJa+QnREfdrO2+p3caUDQ0g5VDA4mhL6U2OSzkHNDZcjfebN+Qa0R40ndo/RaGj3ALq67FEPtQcDCdLMtzquwdLG5mpYGvLrsYuo9/6xs/NfCtEzA5+GhAOjE59tmxVgaPq6eUrt8WZkQA0GSs2/W+zo3a11r7cef49vmVzp0JuRT12H85tCrWon9pjgvxykujPFJ2kh0PKsKB8rJkpuH4PKDRog8kQERVBEREBFVEBERAREQERVBEREBEVQREXgy2TrYijYuzh7wzpZFDEC6azYkPRFBC1uyXPJAHb4+Q2A8ebydqGSricV0OzeRY91fqb1so1mkNkv2B5dLN6YD9pxAG9HXrxOLqYmnHUr+I713zWJ53F9i3ZlPVLYsSHuXvPcn7h2AA8uCxlmqyzeyTmvzOTe2fIPZrw4Q0fVU4P83ED0jv3O3ebu3XllhhimmmkjjiijfLLJK4MjjjYC5z3ud2AA7koPhfv1MbVsXLcgjrwMDnu7lxJIa1jGjuXOJAaB3JIHtXJx9C5kLMWazMRZNH3xWOcepmNjcCPEkA9U2HA+sfyfsj2l3xx8UufuVs7bbIMbXPXx6lI0tadjX0nYY4b8RwP1IP2Wnf2n+rpgAAgBERAXxt2YKVW5cnJbBUrzWpnDuRHCwyOOvkF9lneT/0xuJwLe5zl1jLOi4FuNqEWrbtt9hAbH/eoPRxatYrYHFCzv0qzE/IW+oacLN6R1yRpHwLyPuXn5Kwz2OG1Wn1peTUpy32mOlXsXHH7ulv4rQjy8tLPTf03mGOjDQY8Fh7Nt7g7sLWTkFeNpA9oZHIf7XxQaIeSIiAiKoIiIgIqogIiICIiAiKoIiqiAiqIPyVmKg+n8w7JO27EYOeapiRt3h28k3cVi7rQaWx94oj379ZBXr5JdtRwU8ZjpPDymcmdQpyNPrVog0vs3NBwP1TNkaP2i33rqUKdXHU6lGrH4dapDHXhZ5kMY0NGz7SfMn2k79qD0rMXCeR5KTEt6XYXFyxnNubtzbt1upY8cD9noZsPn8/yW9tle7PZGzUgrVcf0Oy+Um9CxjHlpax5BdJZkad+pC3b3dj5AflL2YrH18XRrUYDI5kLT1yzEulnleS+SaVx83vcS5x95QewDSqqIIiqiCHy+KzmEIymTy3IPtVu+GwxH2XU60hM87elxGpZN6PtETV9+RWbJiqYig9zMjm3vqRSs6i6pUa3qtXOxH2GnTO/2ntXWp1q9KrVqVoxHXqwxwQMG/VjjaGNHdB9XFrWuLiGtAJc5xAAA7kklZ7irXWYMlnpGlsmfvSXYepnQ9uPiaKtNrh/qND/AO8K/XKJJbFepgaznNtchldSc5g26HHMAfdn7gt7M9QfGRq70MUUEUUMTAyKJjYomNGmsYxoa1oHuAACD9oqogIqiCIiICKogiIqgiIiAqoqgiKqICKrkciv2Mdh8hYqgm46NlSg1ui43bcjasGgfP1nAn4BB4MQDlMxms67Zr13OwOHPfpMFaTdudunFp8SQFoPbtEPv0vwXixWPgxONx2Ng7xUq0NcO0Gl5Y3TnkDttx24/Nc3k80slaphashZc5BOcc17C3rgp9BkuWAHfmxggfpPag+WEDsrev8AI37MEvVjsEHdWmY6F/1lloOu87wXb19lrFpF84IYa8MMEEbY4YY2QwxtGmxxxtDGtaPcAAF9EBFUQRfG1YrVK9mzZlbFXrwyTTyP+yyNgLnOOu/ZfbfmszNvkmTNTpDsDh7LHXn7PRksnA4ObWDR5xQnTpNnRdpuvUOw+2BrWbUtrkV+F0VvKMjjpwStAkoYph6oa7u5Ie7vJL383AfkLvPcxjXue5rWtaXOc4gNa0DZJJ9i/WgB+vus1nZH5e5Dxiq9wjniZa5BNGXgwYwu02sHtIAfYILfPs0OOu4QMA1+UuX+TytcI7rBRwjXtLTHiYX9Qm0WtIM7tyHY+yGe5aVfmNjI42RsY1jGNDGMYA1rGtAAa1o7AD2L9oIiqiAqiIIiIgqiqIIiKoIiIgKqIgIiICzuab6ZnOG47pDoorN3O2O/dox8Qhh2Pd1ytP8AZWiWdjZ4nNLshP8A1TjFGJo9xtXp3v18/Db+CDRLO0AcjyPN5A+tXw8UeBpacSz0h4ZbuyBpHnsxR7/zZXdsTw1YLFmZ3TFXhlnld7mRtL3H8AuRxOGWLAYuWfvZvsflrbtaJsZCR1x+x8OvX3IO4iIgIfJCQPcuDlMtbltOweDLH5Z0bH3LL2+JWw9eQbbNYHkZHDvFH5nzOmjZD8ZW7av2ncfxMzorRjY/L3YT62KqSj1Q13kJ5Rvwx5geudADq7FGlTx1SrRpwthq1Y2wwRt8msb7ye5J8ySdkkk9yvhicVSxNRtWsJDuSSezNO7rsW7Mh3JYsyHu57j3J+4aAAH2v36WNqWr12VsVWtH4krz7BsNDWgdy5x0GgdySB7UHmzWVbiqoeyF1m7ZkbUxtOMgSW7kgPRHsnQaPtPcfJoJ+B/OExLsZWebM3pGSuzOuZS0d/0i08AHo35RsGmRjQ0Gjt37+PEUb1u47kGWjdHcljMONpP0W4qk49XQR5eNJ2MzvgG+Te+hQFVEQEREBVREBERBVERAREQEREDSaREDSaREBZ5jvC5lcYWnV3jVKSNx8nOp3Z2SNHyErD960K4WfqXi7F5fHRma/hppZRXB0blKdojs1m9wOpwDXM3+Uwe/sH55jM6DjHJC0DcuOmqjflu1qt/iXcijZFHHEwAMia2NgHkGsHSAFluQXaea4fnrePlbLHFVfYcO7JIpKT2WnxSsd6zXt6e4I3/HVRvbIxkjDtkjWvY4eTmuHUCEH60n71xrfJcLWmdThlfkMgDr0DEs9LtA9QafEDD0MA3sl72j4ryHG5zOaOdcKWOd/wCDUJi507S0AtyNxmi4fa2xmm9+7noE2VvZiZ9HjzmeFHtl7NuaJKtZ29GGk0+rJMPMnuxvbZJ9VdXGYujiqwr1Y3AGSSeeWV5ksWbEh3JPYld6znuPck/qA0PXDBXrxRQQRRxQxMbHFFE1rI42NGg1jWgAAewALx5XL4/EQNmtPeXSkx1a1dhlt3JvZDWhb6znHt8BvZIHcB97t6hjqlq9dsRwVa0ZkmlkJ6WN3odh3JJ0GgDZJAGydLg0qd3O3Kuby8EsFOq8S4HFTDToXaIF++zyM5B+rb3EYP5xJH7qYvIZS1VyvII2t9Gk8fGYljhJWoS60LFhw9V9gew+TO/T3PUtJ5IGtJpEQNJpEQNJpEQNJpEQNJpEQNJpEQNJpEQNIiICIiAiIgIiIOBlePMsTTZDGSR08pLH4Vl7o+unkYgC3wMjA0jqaRtocCHN32PbSy/HsVjZQzj/ACeG/wDS9TrEFa7lchLRvU2E+HLTjMwhc1rdNc0N7dPcDyb/AEcke3SznI7nFSxmNylc5G08eNXxtOF9nIlwB1LC2HT2HW9PL2fNB2qlHHUIRXo1a9WBpLhFViZCzZ8yWsAG19LFirVikntTwwQxjb5bEjYo2j3ue8gLAs49zS85pq5HK8fpdTvUuZixlbpYPshsYd4TBr2eM4/uXQi/k7wErmS5m1l81O3v15S9MWg/otiLTr4FxQfu5zSrLtmJlxzIi4sOVzdhlPGtI2T4Eb3NsSu7HQa0N/TXkxeX4VVsS3HZW3nM4+MRT5CKhetv6N7MVVtWF0MceyT0tPt7k+a9+Q4hgatd13D0q+PyWPgnmpz12Dpc5rHO8OzG7bXsd5HYJ9xBXtoZ116fjMMUMYGUwT83ZHW7qrR6rNjY0AaO3SOHf8z8A8NrnGNpGsJsRyNos2GVaxmxwrCaZ59VjPTJI17vpzNSb8HiebPu8efEQfj1Wiv1y6ON3GOUBzQQMReeN99OZGXtP3EAj5LsxEuhid+U6Njj8y0FBmKfJ89kqla9j+KW56thpfFK7J4qPqaCW/ZMhdvYIIIHklflGas2L1WPimQdYoSRx3IxfxYMZkb4jHN8WVpLXDu0jsdHv27dHDY+7jJc9Xc1v0dNk5L+N08F0bLbRNPCWAAANk6y3v5O+CtKreGe5FfmhEdeWvh6FN3U0mdtZs00kpAOwOqXpG/zUHxOeysYJm4nyAf+Q7Ez/wDwtr5t5XAD/ScHyeqB5umw9iVo+bqhkC0f3JoBBno+acOdJ4T8rFXk3rpyENmifxtxsH612Kt/G3m9dG5UtMHfqqTxTN/GNxX3dHHI0tka17T2LXgOaR8QeyzGXxX8m8UtePL1cHTns9b4ZHmKhNIWaBLZ4ix2xsflINTsJ2WZHHrcLfGwfJsvXZIGGKO3LHlqPR7A1tvcmj8Jgqcny/GE/SeIhyVVvUTb4853pDWjsC/H2XdZPv6JXfL2INKi8GNy+Jy0L5qFqOZsTzHO0dTJoH7I6J4ZAJGu7HsWhe9AREQEREBERAVURAREQEREHCzV2++3j8JipGxX78c1mxbLWP8Ao/Hwuax8wY7ze4kMjGiN7J+z39eLw+MxET46kREkzvEtWZnumt25SSTLZnf67nEknufb2AHZZrJZB2L5uLczN40cZpwXpW+dNst+wWWHjzMYc0B59nWD5Alam9VhydTwW27cMc3hStnxtp9eYtB6x0TRd+k+3XmEHtHT71zcjma2Klq+mxTR0ZiGPyGmuqVpXODWMskHqYHdgHFvTs6JG1zW8YuQHrp8o5PHIBpvpNuC9Fv3ujuQu3/tL4zXM1iGiLkgo5HC2AKk+Trw+A6ATfVn6RqOLo/DdvpLmu0Pa3vtBq+x35a8jtYfhlSxDkM7HYjI+goanGKkjiSZIK81i4H/AHtkh/BdvijnjEeive+Q43IZXEsfIduMNG5LXiBPtIaGjfwXc0B7EHK5LBYtcf5FWrRPlnnxd6KGOMbe+R8Tmta0e8rpQgiGFp7FsbGke4hoBC+ia0gKqIgKqIgL8SwwTsdFNHHLG8aeyVrXscPcWuBH6l+0QZ+TimHie6bFG1hrDnteX4aY14nOaO3iVHB1Zw+cS4c+S5TBk34+zYmuY7DegWMtdwdOOO8/x9yRRWK73P2wBpdN4TdkOGgO63i4912MwMPIM49kpfY9HntNYXPfPNHEypBFCzyDneq0fEoPNaxuMzbK2ZxVpkGRdF1UMtR6XF7PZHYA9WSLY05rvLvrRXsweTlyVSQ2IWwXqVmbH5KBmyyO3Brq8Mu7ljgWvYfc4LKQssYLNx5HM5BlOteo5TNXMdQkdFQq24nVqunRtO5XvEmuw9Z42G78uvw2aa5DyPIzRTQy3+RZJ5hsANlgZXbFUZE8DttoZo/H5INUoiICIiAiIgIiICIiAiIgzk0fTzKk5wBbb4vfgII2HGverv0fZ5PKOwWSxjnScauRVoSXOdicg18uLLnEuJrlh8aLZJPqkt/QVyjnR8p4S4fZmq8jrH4l0VacD9grRIM3/Od9LYz+JyGM6dl1mOM5DHEdWhqzTaXDf6cTV0WWePcgqW60Nylfq2YJK9llWyyT6qVvS5rvBd1A6PwIXS0P/pK5N7jXGci8y3MTSknJDvHZGIrOx3BE8PTJv+0g83FI2R46/wBG/Ddn+RGLqLiehuSnjGy4k+z2rQdlmouJxUtDE5nPY6Npe5kEVxtqs1z3F7iIb7JR3JJPfuT8V+2Y/m8HUY+R0bQ/JbksOwH730Z4h+wg0SLOtd/KLGfXh4tYaN/5ObJVHH7nRzD9a/br/N2D/u7i5SPbFnHtB+QkpBB30WcdlubADXE4HH2hucrdv9qAIMrzYga4nWBPbT87XGu+u5bXKDRouALvOJBpuBxELtec2bmeN/KKl/Ffgf8ASNI7u7itdnwbk7jvx3CEGi7J2WdOK5jNJ1T8pEMZ848ZiKkXb4PuPnd8lP5pY+cSNyeRz2SZIfWjvZSwyA/3FMxR/soPfkeQcdxXU2/lKcErdfUGVr7J2dDorx7lP3NK5r8xmcoDHhsDKYy71b/IWmjSDmaeySOsQbT+/l6jPLzHmuvQwuCxf/Z2No1T09JfXgjZI4fpSAdR+8r36A9iDP1ONxenQ5fMWDlMtEOmvLLEyKrSb1l/TTrNJaNfnOLndvMKcQc2XDusj+t5bkFon39eTsgH8AFoSQBs6AHcn4Dus9wphZxXjm/OSmLDviZ5HzE/tINCiIgIiICIiAqoiCooiCooiDP54NjyvBbR1tmcsVR/6nGW2/wC0KzfKg4N4rMP6vyrBuJ9wmkfUJ/bWjQVFEQVFEQVFEQVFEQFVEQVFEQVFEQeTKTejYzLWN69Ho3Jt+7w4XOXk41GYuOcYjIAczDYxrh+l6NHtfnlLxHxnlTifPC5No+b672D966FKHwKdGDsPBrV4te7oja3+CD0ooiCooiAiIgIiICIiAiIgz3MXCPByz671shg7IP5vhZOs4u/Da0P/NZ/mURm4vyVo82Y2xONewwanB+7pXdjeJGMeD2e1rx8nAFB+0REBERAREQEREBERAREQEREGc5sT/NfNsG9zsq1Br/SbUNf/EtGPL5EhZ7lha7G067vK5neO1vn1ZKB/wDhWgH8T+9BUREBERAREQFVEQEREBVREHM5BE6fBcihb5zYjJRDXnt9aRoX7wc3pGGwdje/HxmPm3/r12OXtljbNHLE77Msb43fJzS0ri8PlE3F+LvHsxVOL74oxF/BB3UREBERAREQFVEQFVEQEREBVREGc5Q0vk4dEPKTleMLvlBDYs/vYFoh5BZ/NP6s5wSuRsOyeSsn4eBi7DQfxeFoUFUREBERAREQEREBERAREQPcs7wtpj49SgPnVt5apr3CDIWIwPwAWiWe4q8mHkcR/q/KeQRge5slo2R+p6DQoiICIiAiIgIiICIiAiIgIiIM9kWeLyvh+u/o+O5HYcPdv0OAH9ohaFZ1zi/m9dnsrcVsv+Rs5CJo/wCGVokBERAREQEREDabREDabREDabREEPkfkVwMAGw5DnFcEbHIGWdD/SsdTl/5rQLN4nqZyjnEZ8pWceuD3EvqyVyR/uwg0m02iIG02iIG02iIG02iIG02iIG02iIG02iIM/XDZeYZuUa3W4/hax+ctq7N/ALQbWcxG38n53IR2Y7AVAT7mUnT6/8AcWjQNptEQNptEQNoiICqiqCIqogKoiCLOwubHzHKRAa9I43iZz8XQ3bkRP3BwWiWemZ4fM8ZL5CzxvJwfAmvdqS/4z+KDRKKqICKogiKqICqIgiqiqCIqogIfI/JVQ+X4IM/x9zZchzix+U7kPoxPwrY6nFr7u60CzvFGERcjlPfx+U8heD7wyya4/UwLRIKoqiCIiqCIiICqiqCIqogKoiCLO5VxZyng7tkCWHkVT5l9eGwP+GVoln8/wBEeS4NZJ9ZufkrD2drONuM/gEGgREQEVRBEVUQFURBFVFUERVRAT3fd+9Vfl72sY97j6rGuefk0bQZ/hjzNx+pYPnZu5m1v3ibJWZAfwIWhXA4ZEYeLcYafN2Nrzf74eL/ABXfQVRVEERFUEREQERVBEREBEVQRZ3lbXCLjU4/q3KcDI4+5ss5rE/trRLPcyf4WAtzjW693C2QT7BDk60hP4AoNCiD2/MogIiICIiAiKoIiKoIiIgLn5uY1sLnrAJBr4vITAj2eHXe5dBcTlsoh4xyl58jh78X3ywuiH70Ho4/EYcDxyE+cOIxsZ+ba0YK6a+deNsMFeFvZsUMcY+TGhq+iAiqiAiIgIiICIqgiIiAiKoIuDzGHx+L8nZ+bi7c33wN8b/Cu8udnoTYwnIIB5z4rIwj+8rvag90LxJFHIPKRjJB/baHL9rm4CY2MHgJz5zYrHSn5vrRuK6SAiIgIiICIqgiIqgiIiAs5zYOfxrKRNGzPNi6uveLF+vCf1ErRrPcrf8A0TEQefpfI+OwEe8C9HMd/wCyg0I/if3og8vxRARVRAREQEREBERAREQEREBfl7GyMex3dr2uY4fBw0V+kKDg8QkL+N4SJ7SyalW+jLMbvtR2KLnVJGuHzau8szb8Tjl+5lWtdJg8i9s+YZE0mTH2mtEf0gxjO5jcABOANjpD+43rRwzQ2Io5oZGSwysbJFJE9r45GOGw5j2bBB9ndB+0REBERAREQEREBERAWc5EG2Mjwii0nxnZ36TI0SPR8fUmfI4n4OfGB8XBdfI5GhjKstq7MIoWkMb5uklld9mKFg9Zz3fkgd1zMNTvT27OfykZiuW4RVpU3dO8djmv8QQuLfOR506U7PcBvkzuHfHkEREBERAREQEREBEVQRERARFUERFUE1sFfGtVqU4mwVIIa8DS4tirxMijaXHZ0xgDe57nsvsiAiIgIiICIqgiIqgiIiD4y1as0taaaCGSWs5z60kkbHyQOc3pc6JzhsEjsdaX20iqCIiICKqICIiAiIgdk7IiB2TsiIHZOyIgdk7IiB2TsiIHZOyIgdk7IiB2TsiIHZOyIgdlC5rQSSAB3JJ0B95REDY1tNhEU3YKptEUoqIitBERKHZERUf/2Q==;" parent="1" vertex="1">
          <mxGeometry x="520" y="691" width="40" height="50" as="geometry" />
        </mxCell>
        <mxCell id="nukibrV0YJtKpQNif3TN-36" value="Définition de la somme de sous-espaces vectoriels" style="swimlane;fontStyle=0;childLayout=stackLayout;horizontal=1;startSize=30;horizontalStack=0;resizeParent=1;resizeParentMax=0;resizeLast=0;collapsible=1;marginBottom=0;whiteSpace=wrap;html=1;swimlaneLine=1;" parent="1" vertex="1">
          <mxGeometry x="520" y="361" width="680" height="330" as="geometry">
            <mxRectangle x="600" y="400" width="380" height="30" as="alternateBounds" />
          </mxGeometry>
        </mxCell>
        <mxCell id="nukibrV0YJtKpQNif3TN-37" value="Corps (&lt;svg xmlns:xlink=&quot;http://www.w3.org/1999/xlink&quot; viewBox=&quot;0 -683 2723.3 877&quot; role=&quot;img&quot; height=&quot;1.984ex&quot; width=&quot;6.161ex&quot; xmlns=&quot;http://www.w3.org/2000/svg&quot; style=&quot;vertical-align: -0.439ex;&quot;&gt;&lt;defs&gt;&lt;path d=&quot;M22 666Q22 676 33 683H351L358 679Q368 665 358 655Q351 648 324 648Q288 645 280 637Q275 631 274 605T273 477L275 343L382 446Q473 530 492 553T512 599Q512 617 502 631T475 648Q455 651 455 666Q455 677 465 680T510 683H593H720Q732 676 732 666Q732 659 727 654T713 648Q670 648 589 581Q567 562 490 489T413 415Q413 413 554 245T711 61Q737 35 751 35Q758 35 763 29T768 15Q768 6 758 -1H624Q491 -1 486 3Q480 10 480 17Q480 25 487 30T506 35Q518 36 520 38T520 48L400 195L302 310L286 297L273 283V170Q275 65 277 57Q280 41 300 38Q302 37 324 35Q349 35 358 28Q367 17 358 3L351 -1H33Q22 4 22 16Q22 35 60 35Q101 38 106 52Q111 60 111 341T106 632Q100 645 60 648Q22 648 22 666ZM240 341V553Q240 635 246 648H138Q141 641 142 638T144 603T146 517T146 341Q146 131 145 89T139 37Q138 36 138 35H246Q240 47 240 129V341ZM595 632L615 648H535L542 637Q542 636 544 625T549 610V595L562 606Q565 608 577 618T595 632ZM524 226L386 388Q386 389 378 382T358 361Q330 338 330 333Q330 332 330 332L331 330L533 90Q558 55 558 41V35H684L671 50Q667 54 524 226Z&quot; id=&quot;MJX-22-TEX-D-1D542&quot;&gt;&lt;/path&gt;&lt;path d=&quot;M78 35T78 60T94 103T137 121Q165 121 187 96T210 8Q210 -27 201 -60T180 -117T154 -158T130 -185T117 -194Q113 -194 104 -185T95 -172Q95 -168 106 -156T131 -126T157 -76T173 -3V9L172 8Q170 7 167 6T161 3T152 1T140 0Q113 0 96 17Z&quot; id=&quot;MJX-22-TEX-N-2C&quot;&gt;&lt;/path&gt;&lt;path d=&quot;M56 237T56 250T70 270H369V420L370 570Q380 583 389 583Q402 583 409 568V270H707Q722 262 722 250T707 230H409V-68Q401 -82 391 -82H389H387Q375 -82 369 -68V230H70Q56 237 56 250Z&quot; id=&quot;MJX-22-TEX-N-2B&quot;&gt;&lt;/path&gt;&lt;path d=&quot;M78 250Q78 274 95 292T138 310Q162 310 180 294T199 251Q199 226 182 208T139 190T96 207T78 250Z&quot; id=&quot;MJX-22-TEX-N-22C5&quot;&gt;&lt;/path&gt;&lt;/defs&gt;&lt;g transform=&quot;scale(1,-1)&quot; stroke-width=&quot;0&quot; fill=&quot;currentColor&quot; stroke=&quot;currentColor&quot;&gt;&lt;g data-mml-node=&quot;math&quot;&gt;&lt;g data-mjx-texclass=&quot;ORD&quot; data-mml-node=&quot;TeXAtom&quot;&gt;&lt;g data-mml-node=&quot;mi&quot;&gt;&lt;use xlink:href=&quot;#MJX-22-TEX-D-1D542&quot; data-c=&quot;1D542&quot;&gt;&lt;/use&gt;&lt;/g&gt;&lt;/g&gt;&lt;g transform=&quot;translate(778,0)&quot; data-mml-node=&quot;mo&quot;&gt;&lt;use xlink:href=&quot;#MJX-22-TEX-N-2C&quot; data-c=&quot;2C&quot;&gt;&lt;/use&gt;&lt;/g&gt;&lt;g transform=&quot;translate(1222.7,0)&quot; data-mml-node=&quot;mo&quot;&gt;&lt;use xlink:href=&quot;#MJX-22-TEX-N-2B&quot; data-c=&quot;2B&quot;&gt;&lt;/use&gt;&lt;/g&gt;&lt;g transform=&quot;translate(2000.7,0)&quot; data-mml-node=&quot;mo&quot;&gt;&lt;use xlink:href=&quot;#MJX-22-TEX-N-2C&quot; data-c=&quot;2C&quot;&gt;&lt;/use&gt;&lt;/g&gt;&lt;g transform=&quot;translate(2445.3,0)&quot; data-mml-node=&quot;mo&quot;&gt;&lt;/g&gt;&lt;/g&gt;&lt;/g&gt;&lt;/svg&gt;.) (代数群)" style="text;strokeColor=none;fillColor=none;align=left;verticalAlign=middle;spacingLeft=4;spacingRight=4;overflow=hidden;points=[[0,0.5],[1,0.5]];portConstraint=eastwest;rotatable=0;whiteSpace=wrap;html=1;rounded=0;glass=0;" parent="nukibrV0YJtKpQNif3TN-36" vertex="1">
          <mxGeometry y="30" width="680" height="70" as="geometry" />
        </mxCell>
        <mxCell id="nukibrV0YJtKpQNif3TN-38" value="Somme finie" style="text;strokeColor=default;fillColor=none;align=left;verticalAlign=middle;spacingLeft=4;spacingRight=4;overflow=hidden;points=[[0,0.5],[1,0.5]];portConstraint=eastwest;rotatable=0;whiteSpace=wrap;html=1;rounded=0;glass=0;" parent="nukibrV0YJtKpQNif3TN-36" vertex="1">
          <mxGeometry y="100" width="680" height="60" as="geometry" />
        </mxCell>
        <mxCell id="nukibrV0YJtKpQNif3TN-40" value="\( E_1,E_2 \) deux s.e.v. de \( E \)&#x9;&lt;span style=&quot;&quot;&gt;&lt;span style=&quot;white-space: pre;&quot;&gt;&amp;nbsp;&amp;nbsp;&amp;nbsp;&amp;nbsp;\( E_1 + E_2 \overset{\text{Def}}{=} \{ x_1 + x_2, x_1 \in E_1~\text{et}~x_2 \in E_2 \} \)&lt;/span&gt;&lt;/span&gt;" style="text;strokeColor=none;fillColor=none;align=left;verticalAlign=middle;spacingLeft=4;spacingRight=4;overflow=hidden;points=[[0,0.5],[1,0.5]];portConstraint=eastwest;rotatable=0;whiteSpace=wrap;html=1;" parent="nukibrV0YJtKpQNif3TN-36" vertex="1">
          <mxGeometry y="160" width="680" height="50" as="geometry" />
        </mxCell>
        <mxCell id="nukibrV0YJtKpQNif3TN-43" value="Somme quelconque" style="text;strokeColor=default;fillColor=none;align=left;verticalAlign=middle;spacingLeft=4;spacingRight=4;overflow=hidden;points=[[0,0.5],[1,0.5]];portConstraint=eastwest;rotatable=0;whiteSpace=wrap;html=1;" parent="nukibrV0YJtKpQNif3TN-36" vertex="1">
          <mxGeometry y="210" width="680" height="60" as="geometry" />
        </mxCell>
        <mxCell id="nukibrV0YJtKpQNif3TN-47" value="\( (E_i)_{i \in I} \) une famille de s.e.v. de \( E \)&lt;span style=&quot;&quot;&gt;&lt;span style=&quot;white-space: pre;&quot;&gt;&amp;nbsp;&amp;nbsp;&amp;nbsp;&amp;nbsp;&lt;/span&gt;&lt;/span&gt;&lt;span style=&quot;&quot;&gt;&lt;/span&gt;\( \sum \limits_{i \in I} E_i \overset{\text{Def}}{=} \{ x \in E, \exists n \in \mathbb{N}, \exists (i_1, ..., i_n) \in I^n, \exists (x_{i_1}, ..., x_{i_n}) \in E_{i_1} \times \cdots \times E_{i_n}, x = \sum \limits_{k = 1}^n x_{i_k} = x_{i_1} + \cdots + x_{i_n} \} \)" style="text;strokeColor=none;fillColor=none;align=left;verticalAlign=middle;spacingLeft=4;spacingRight=4;overflow=hidden;points=[[0,0.5],[1,0.5]];portConstraint=eastwest;rotatable=0;whiteSpace=wrap;html=1;" parent="nukibrV0YJtKpQNif3TN-36" vertex="1">
          <mxGeometry y="270" width="680" height="60" as="geometry" />
        </mxCell>
        <mxCell id="xsxaBmDc6MS7xrfdTg8h-1" value="La définition de supplémentaire de s.e.v et celle de l&#39;ensemble sont différentes. " style="text;html=1;strokeColor=none;fillColor=none;align=left;verticalAlign=middle;whiteSpace=wrap;rounded=0;" parent="1" vertex="1">
          <mxGeometry x="560" y="1451" width="640" height="50" as="geometry" />
        </mxCell>
        <mxCell id="xsxaBmDc6MS7xrfdTg8h-2" value="" style="shape=image;html=1;verticalLabelPosition=bottom;verticalAlign=top;imageAspect=0;image=data:image/jpeg,/9j/4AAQSkZJRgABAQAAAQABAAD/2wBDAAsJCQcJCQcJCQkJCwkJCQkJCQsJCwsMCwsLDA0QDBEODQ4MEhkSJRodJR0ZHxwpKRYlNzU2GioyPi0pMBk7IRP/2wBDAQcICAsJCxULCxUsHRkdLCwsLCwsLCwsLCwsLCwsLCwsLCwsLCwsLCwsLCwsLCwsLCwsLCwsLCwsLCwsLCwsLCz/wAARCAFoAOYDASIAAhEBAxEB/8QAGwABAQEBAQEBAQAAAAAAAAAAAAEGBQQDAgf/xABLEAABBAIBAgIGBQcHCAsAAAABAAIDBAURBhIhEzEUIkFRYXEVIzKBkUJSYqGiscEHFiREgoPCM2NkcpKTs9EXNDU2RXOEo7Lw8f/EABUBAQEAAAAAAAAAAAAAAAAAAAAB/8QAFhEBAQEAAAAAAAAAAAAAAAAAABEB/9oADAMBAAIRAxEAPwD+t9k7IqgnZOyIgdk7IqgnZOyKoJ2TsiIHZOyIgdk7IiB2TsiqCdk7IqgnZOyIgdk7IqgnZOyIgdk7KqIHZOyIgdkREBERAREQEREBERAREQEQrkZTOV8fJHShhlvZexE6Srjqhb472g9Ilmc49DIt9i9xA7HWyNIOsXBocSQAASSToADvskrhP5ViXyOhxsV3MTMeI5G4WD0iGMkb+stvcyqPiPF38F8mYG5lSJuS2WWWB3VHiafiR4qHRaR4wOnzOGgdv9XudMHt0EUMMEccMMbI4o2hsccTWsYxo7ANa3QA+5BwDl+YE7ZxJ3h+6bM0WTa/1GBzN/3i9FPkVSa1Fj71a3i8jKCYa2TbGwWdAdXos8TnQv1vyD9/D3e7IZTF4uITZG5Xqxu2IzPI1rpHAb6Ymfac74AErh3clSzUE9T+bGaylKVoO56cNOu/t2ew5KWGQH3ODfvQajaL+bVuUZbC+I9+Nz93A1rNmnbdcZWsXcXLXf0SN9KqyvD42nf+UDTogh7gt7jMnjcxThv46wyetL1Bj2dQII82ua4BwI9oIQexERAREQEREBERAREQEREBEVQRERARFUERFUERN6BWeyd+9duHBYeTw7bWMflbzQHNxdeQbaGg9jO8f5Np8h6x7a6guRyt+1Zmw+B6DkGdLb9+VviVMSx3fb2js+cj7Ee/i7QGne7FYiji45fB8WSxYe2S7csu8S3claNdc8p7nXsA0B5ABffHY6jiqkVOnH0Qx7cS4l0kkjjt8krz3LnHu4n/APF/IUsbWltXJWxQMABcduc5zjprI2NBc5zj2aACSg9EssUMcs0sjI4omPllkleGRxxsHU573O7AAdyVn/pLMZw9ODHoeNPSDmbcPW6dpBJ+jasmtjy+seA3z0147r8w46/nZRcz0RhxzXsfj8I7TmgNIc2fKaJa+QnREfdrO2+p3caUDQ0g5VDA4mhL6U2OSzkHNDZcjfebN+Qa0R40ndo/RaGj3ALq67FEPtQcDCdLMtzquwdLG5mpYGvLrsYuo9/6xs/NfCtEzA5+GhAOjE59tmxVgaPq6eUrt8WZkQA0GSs2/W+zo3a11r7cef49vmVzp0JuRT12H85tCrWon9pjgvxykujPFJ2kh0PKsKB8rJkpuH4PKDRog8kQERVBEREBFVEBERAREQERVBEREBEVQREXgy2TrYijYuzh7wzpZFDEC6azYkPRFBC1uyXPJAHb4+Q2A8ebydqGSricV0OzeRY91fqb1so1mkNkv2B5dLN6YD9pxAG9HXrxOLqYmnHUr+I713zWJ53F9i3ZlPVLYsSHuXvPcn7h2AA8uCxlmqyzeyTmvzOTe2fIPZrw4Q0fVU4P83ED0jv3O3ebu3XllhhimmmkjjiijfLLJK4MjjjYC5z3ud2AA7koPhfv1MbVsXLcgjrwMDnu7lxJIa1jGjuXOJAaB3JIHtXJx9C5kLMWazMRZNH3xWOcepmNjcCPEkA9U2HA+sfyfsj2l3xx8UufuVs7bbIMbXPXx6lI0tadjX0nYY4b8RwP1IP2Wnf2n+rpgAAgBERAXxt2YKVW5cnJbBUrzWpnDuRHCwyOOvkF9lneT/0xuJwLe5zl1jLOi4FuNqEWrbtt9hAbH/eoPRxatYrYHFCzv0qzE/IW+oacLN6R1yRpHwLyPuXn5Kwz2OG1Wn1peTUpy32mOlXsXHH7ulv4rQjy8tLPTf03mGOjDQY8Fh7Nt7g7sLWTkFeNpA9oZHIf7XxQaIeSIiAiKoIiIgIqogIiICIiAiKoIiqiAiqIPyVmKg+n8w7JO27EYOeapiRt3h28k3cVi7rQaWx94oj379ZBXr5JdtRwU8ZjpPDymcmdQpyNPrVog0vs3NBwP1TNkaP2i33rqUKdXHU6lGrH4dapDHXhZ5kMY0NGz7SfMn2k79qD0rMXCeR5KTEt6XYXFyxnNubtzbt1upY8cD9noZsPn8/yW9tle7PZGzUgrVcf0Oy+Um9CxjHlpax5BdJZkad+pC3b3dj5AflL2YrH18XRrUYDI5kLT1yzEulnleS+SaVx83vcS5x95QewDSqqIIiqiCHy+KzmEIymTy3IPtVu+GwxH2XU60hM87elxGpZN6PtETV9+RWbJiqYig9zMjm3vqRSs6i6pUa3qtXOxH2GnTO/2ntXWp1q9KrVqVoxHXqwxwQMG/VjjaGNHdB9XFrWuLiGtAJc5xAAA7kklZ7irXWYMlnpGlsmfvSXYepnQ9uPiaKtNrh/qND/AO8K/XKJJbFepgaznNtchldSc5g26HHMAfdn7gt7M9QfGRq70MUUEUUMTAyKJjYomNGmsYxoa1oHuAACD9oqogIqiCIiICKogiIqgiIiAqoqgiKqICKrkciv2Mdh8hYqgm46NlSg1ui43bcjasGgfP1nAn4BB4MQDlMxms67Zr13OwOHPfpMFaTdudunFp8SQFoPbtEPv0vwXixWPgxONx2Ng7xUq0NcO0Gl5Y3TnkDttx24/Nc3k80slaphashZc5BOcc17C3rgp9BkuWAHfmxggfpPag+WEDsrev8AI37MEvVjsEHdWmY6F/1lloOu87wXb19lrFpF84IYa8MMEEbY4YY2QwxtGmxxxtDGtaPcAAF9EBFUQRfG1YrVK9mzZlbFXrwyTTyP+yyNgLnOOu/ZfbfmszNvkmTNTpDsDh7LHXn7PRksnA4ObWDR5xQnTpNnRdpuvUOw+2BrWbUtrkV+F0VvKMjjpwStAkoYph6oa7u5Ie7vJL383AfkLvPcxjXue5rWtaXOc4gNa0DZJJ9i/WgB+vus1nZH5e5Dxiq9wjniZa5BNGXgwYwu02sHtIAfYILfPs0OOu4QMA1+UuX+TytcI7rBRwjXtLTHiYX9Qm0WtIM7tyHY+yGe5aVfmNjI42RsY1jGNDGMYA1rGtAAa1o7AD2L9oIiqiAqiIIiIgqiqIIiKoIiIgKqIgIiICzuab6ZnOG47pDoorN3O2O/dox8Qhh2Pd1ytP8AZWiWdjZ4nNLshP8A1TjFGJo9xtXp3v18/Db+CDRLO0AcjyPN5A+tXw8UeBpacSz0h4ZbuyBpHnsxR7/zZXdsTw1YLFmZ3TFXhlnld7mRtL3H8AuRxOGWLAYuWfvZvsflrbtaJsZCR1x+x8OvX3IO4iIgIfJCQPcuDlMtbltOweDLH5Z0bH3LL2+JWw9eQbbNYHkZHDvFH5nzOmjZD8ZW7av2ncfxMzorRjY/L3YT62KqSj1Q13kJ5Rvwx5geudADq7FGlTx1SrRpwthq1Y2wwRt8msb7ye5J8ySdkkk9yvhicVSxNRtWsJDuSSezNO7rsW7Mh3JYsyHu57j3J+4aAAH2v36WNqWr12VsVWtH4krz7BsNDWgdy5x0GgdySB7UHmzWVbiqoeyF1m7ZkbUxtOMgSW7kgPRHsnQaPtPcfJoJ+B/OExLsZWebM3pGSuzOuZS0d/0i08AHo35RsGmRjQ0Gjt37+PEUb1u47kGWjdHcljMONpP0W4qk49XQR5eNJ2MzvgG+Te+hQFVEQEREBVREBERBVERAREQEREDSaREDSaREBZ5jvC5lcYWnV3jVKSNx8nOp3Z2SNHyErD960K4WfqXi7F5fHRma/hppZRXB0blKdojs1m9wOpwDXM3+Uwe/sH55jM6DjHJC0DcuOmqjflu1qt/iXcijZFHHEwAMia2NgHkGsHSAFluQXaea4fnrePlbLHFVfYcO7JIpKT2WnxSsd6zXt6e4I3/HVRvbIxkjDtkjWvY4eTmuHUCEH60n71xrfJcLWmdThlfkMgDr0DEs9LtA9QafEDD0MA3sl72j4ryHG5zOaOdcKWOd/wCDUJi507S0AtyNxmi4fa2xmm9+7noE2VvZiZ9HjzmeFHtl7NuaJKtZ29GGk0+rJMPMnuxvbZJ9VdXGYujiqwr1Y3AGSSeeWV5ksWbEh3JPYld6znuPck/qA0PXDBXrxRQQRRxQxMbHFFE1rI42NGg1jWgAAewALx5XL4/EQNmtPeXSkx1a1dhlt3JvZDWhb6znHt8BvZIHcB97t6hjqlq9dsRwVa0ZkmlkJ6WN3odh3JJ0GgDZJAGydLg0qd3O3Kuby8EsFOq8S4HFTDToXaIF++zyM5B+rb3EYP5xJH7qYvIZS1VyvII2t9Gk8fGYljhJWoS60LFhw9V9gew+TO/T3PUtJ5IGtJpEQNJpEQNJpEQNJpEQNJpEQNJpEQNJpEQNIiICIiAiIgIiIOBlePMsTTZDGSR08pLH4Vl7o+unkYgC3wMjA0jqaRtocCHN32PbSy/HsVjZQzj/ACeG/wDS9TrEFa7lchLRvU2E+HLTjMwhc1rdNc0N7dPcDyb/AEcke3SznI7nFSxmNylc5G08eNXxtOF9nIlwB1LC2HT2HW9PL2fNB2qlHHUIRXo1a9WBpLhFViZCzZ8yWsAG19LFirVikntTwwQxjb5bEjYo2j3ue8gLAs49zS85pq5HK8fpdTvUuZixlbpYPshsYd4TBr2eM4/uXQi/k7wErmS5m1l81O3v15S9MWg/otiLTr4FxQfu5zSrLtmJlxzIi4sOVzdhlPGtI2T4Eb3NsSu7HQa0N/TXkxeX4VVsS3HZW3nM4+MRT5CKhetv6N7MVVtWF0MceyT0tPt7k+a9+Q4hgatd13D0q+PyWPgnmpz12Dpc5rHO8OzG7bXsd5HYJ9xBXtoZ116fjMMUMYGUwT83ZHW7qrR6rNjY0AaO3SOHf8z8A8NrnGNpGsJsRyNos2GVaxmxwrCaZ59VjPTJI17vpzNSb8HiebPu8efEQfj1Wiv1y6ON3GOUBzQQMReeN99OZGXtP3EAj5LsxEuhid+U6Njj8y0FBmKfJ89kqla9j+KW56thpfFK7J4qPqaCW/ZMhdvYIIIHklflGas2L1WPimQdYoSRx3IxfxYMZkb4jHN8WVpLXDu0jsdHv27dHDY+7jJc9Xc1v0dNk5L+N08F0bLbRNPCWAAANk6y3v5O+CtKreGe5FfmhEdeWvh6FN3U0mdtZs00kpAOwOqXpG/zUHxOeysYJm4nyAf+Q7Ez/wDwtr5t5XAD/ScHyeqB5umw9iVo+bqhkC0f3JoBBno+acOdJ4T8rFXk3rpyENmifxtxsH612Kt/G3m9dG5UtMHfqqTxTN/GNxX3dHHI0tka17T2LXgOaR8QeyzGXxX8m8UtePL1cHTns9b4ZHmKhNIWaBLZ4ix2xsflINTsJ2WZHHrcLfGwfJsvXZIGGKO3LHlqPR7A1tvcmj8Jgqcny/GE/SeIhyVVvUTb4853pDWjsC/H2XdZPv6JXfL2INKi8GNy+Jy0L5qFqOZsTzHO0dTJoH7I6J4ZAJGu7HsWhe9AREQEREBERAVURAREQEREHCzV2++3j8JipGxX78c1mxbLWP8Ao/Hwuax8wY7ze4kMjGiN7J+z39eLw+MxET46kREkzvEtWZnumt25SSTLZnf67nEknufb2AHZZrJZB2L5uLczN40cZpwXpW+dNst+wWWHjzMYc0B59nWD5Alam9VhydTwW27cMc3hStnxtp9eYtB6x0TRd+k+3XmEHtHT71zcjma2Klq+mxTR0ZiGPyGmuqVpXODWMskHqYHdgHFvTs6JG1zW8YuQHrp8o5PHIBpvpNuC9Fv3ujuQu3/tL4zXM1iGiLkgo5HC2AKk+Trw+A6ATfVn6RqOLo/DdvpLmu0Pa3vtBq+x35a8jtYfhlSxDkM7HYjI+goanGKkjiSZIK81i4H/AHtkh/BdvijnjEeive+Q43IZXEsfIduMNG5LXiBPtIaGjfwXc0B7EHK5LBYtcf5FWrRPlnnxd6KGOMbe+R8Tmta0e8rpQgiGFp7FsbGke4hoBC+ia0gKqIgKqIgL8SwwTsdFNHHLG8aeyVrXscPcWuBH6l+0QZ+TimHie6bFG1hrDnteX4aY14nOaO3iVHB1Zw+cS4c+S5TBk34+zYmuY7DegWMtdwdOOO8/x9yRRWK73P2wBpdN4TdkOGgO63i4912MwMPIM49kpfY9HntNYXPfPNHEypBFCzyDneq0fEoPNaxuMzbK2ZxVpkGRdF1UMtR6XF7PZHYA9WSLY05rvLvrRXsweTlyVSQ2IWwXqVmbH5KBmyyO3Brq8Mu7ljgWvYfc4LKQssYLNx5HM5BlOteo5TNXMdQkdFQq24nVqunRtO5XvEmuw9Z42G78uvw2aa5DyPIzRTQy3+RZJ5hsANlgZXbFUZE8DttoZo/H5INUoiICIiAiIgIiICIiAiIgzk0fTzKk5wBbb4vfgII2HGverv0fZ5PKOwWSxjnScauRVoSXOdicg18uLLnEuJrlh8aLZJPqkt/QVyjnR8p4S4fZmq8jrH4l0VacD9grRIM3/Od9LYz+JyGM6dl1mOM5DHEdWhqzTaXDf6cTV0WWePcgqW60Nylfq2YJK9llWyyT6qVvS5rvBd1A6PwIXS0P/pK5N7jXGci8y3MTSknJDvHZGIrOx3BE8PTJv+0g83FI2R46/wBG/Ddn+RGLqLiehuSnjGy4k+z2rQdlmouJxUtDE5nPY6Npe5kEVxtqs1z3F7iIb7JR3JJPfuT8V+2Y/m8HUY+R0bQ/JbksOwH730Z4h+wg0SLOtd/KLGfXh4tYaN/5ObJVHH7nRzD9a/br/N2D/u7i5SPbFnHtB+QkpBB30WcdlubADXE4HH2hucrdv9qAIMrzYga4nWBPbT87XGu+u5bXKDRouALvOJBpuBxELtec2bmeN/KKl/Ffgf8ASNI7u7itdnwbk7jvx3CEGi7J2WdOK5jNJ1T8pEMZ848ZiKkXb4PuPnd8lP5pY+cSNyeRz2SZIfWjvZSwyA/3FMxR/soPfkeQcdxXU2/lKcErdfUGVr7J2dDorx7lP3NK5r8xmcoDHhsDKYy71b/IWmjSDmaeySOsQbT+/l6jPLzHmuvQwuCxf/Z2No1T09JfXgjZI4fpSAdR+8r36A9iDP1ONxenQ5fMWDlMtEOmvLLEyKrSb1l/TTrNJaNfnOLndvMKcQc2XDusj+t5bkFon39eTsgH8AFoSQBs6AHcn4Dus9wphZxXjm/OSmLDviZ5HzE/tINCiIgIiICIiAqoiCooiCooiDP54NjyvBbR1tmcsVR/6nGW2/wC0KzfKg4N4rMP6vyrBuJ9wmkfUJ/bWjQVFEQVFEQVFEQVFEQFVEQVFEQVFEQeTKTejYzLWN69Ho3Jt+7w4XOXk41GYuOcYjIAczDYxrh+l6NHtfnlLxHxnlTifPC5No+b672D966FKHwKdGDsPBrV4te7oja3+CD0ooiCooiAiIgIiICIiAiIgz3MXCPByz671shg7IP5vhZOs4u/Da0P/NZ/mURm4vyVo82Y2xONewwanB+7pXdjeJGMeD2e1rx8nAFB+0REBERAREQEREBERAREQEREGc5sT/NfNsG9zsq1Br/SbUNf/EtGPL5EhZ7lha7G067vK5neO1vn1ZKB/wDhWgH8T+9BUREBERAREQFVEQEREBVREHM5BE6fBcihb5zYjJRDXnt9aRoX7wc3pGGwdje/HxmPm3/r12OXtljbNHLE77Msb43fJzS0ri8PlE3F+LvHsxVOL74oxF/BB3UREBERAREQFVEQFVEQEREBVREGc5Q0vk4dEPKTleMLvlBDYs/vYFoh5BZ/NP6s5wSuRsOyeSsn4eBi7DQfxeFoUFUREBERAREQEREBERAREQPcs7wtpj49SgPnVt5apr3CDIWIwPwAWiWe4q8mHkcR/q/KeQRge5slo2R+p6DQoiICIiAiIgIiICIiAiIgIiIM9kWeLyvh+u/o+O5HYcPdv0OAH9ohaFZ1zi/m9dnsrcVsv+Rs5CJo/wCGVokBERAREQEREDabREDabREDabREEPkfkVwMAGw5DnFcEbHIGWdD/SsdTl/5rQLN4nqZyjnEZ8pWceuD3EvqyVyR/uwg0m02iIG02iIG02iIG02iIG02iIG02iIG02iIM/XDZeYZuUa3W4/hax+ctq7N/ALQbWcxG38n53IR2Y7AVAT7mUnT6/8AcWjQNptEQNptEQNoiICqiqCIqogKoiCLOwubHzHKRAa9I43iZz8XQ3bkRP3BwWiWemZ4fM8ZL5CzxvJwfAmvdqS/4z+KDRKKqICKogiKqICqIgiqiqCIqogIfI/JVQ+X4IM/x9zZchzix+U7kPoxPwrY6nFr7u60CzvFGERcjlPfx+U8heD7wyya4/UwLRIKoqiCIiqCIiICqiqCIqogKoiCLO5VxZyng7tkCWHkVT5l9eGwP+GVoln8/wBEeS4NZJ9ZufkrD2drONuM/gEGgREQEVRBEVUQFURBFVFUERVRAT3fd+9Vfl72sY97j6rGuefk0bQZ/hjzNx+pYPnZu5m1v3ibJWZAfwIWhXA4ZEYeLcYafN2Nrzf74eL/ABXfQVRVEERFUEREQERVBEREBEVQRZ3lbXCLjU4/q3KcDI4+5ss5rE/trRLPcyf4WAtzjW693C2QT7BDk60hP4AoNCiD2/MogIiICIiAiKoIiKoIiIgLn5uY1sLnrAJBr4vITAj2eHXe5dBcTlsoh4xyl58jh78X3ywuiH70Ho4/EYcDxyE+cOIxsZ+ba0YK6a+deNsMFeFvZsUMcY+TGhq+iAiqiAiIgIiICIqgiIiAiKoIuDzGHx+L8nZ+bi7c33wN8b/Cu8udnoTYwnIIB5z4rIwj+8rvag90LxJFHIPKRjJB/baHL9rm4CY2MHgJz5zYrHSn5vrRuK6SAiIgIiICIqgiIqgiIiAs5zYOfxrKRNGzPNi6uveLF+vCf1ErRrPcrf8A0TEQefpfI+OwEe8C9HMd/wCyg0I/if3og8vxRARVRAREQEREBERAREQEREBfl7GyMex3dr2uY4fBw0V+kKDg8QkL+N4SJ7SyalW+jLMbvtR2KLnVJGuHzau8szb8Tjl+5lWtdJg8i9s+YZE0mTH2mtEf0gxjO5jcABOANjpD+43rRwzQ2Io5oZGSwysbJFJE9r45GOGw5j2bBB9ndB+0REBERAREQEREBERAWc5EG2Mjwii0nxnZ36TI0SPR8fUmfI4n4OfGB8XBdfI5GhjKstq7MIoWkMb5uklld9mKFg9Zz3fkgd1zMNTvT27OfykZiuW4RVpU3dO8djmv8QQuLfOR506U7PcBvkzuHfHkEREBERAREQEREBEVQRERARFUERFUE1sFfGtVqU4mwVIIa8DS4tirxMijaXHZ0xgDe57nsvsiAiIgIiICIqgiIqgiIiD4y1as0taaaCGSWs5z60kkbHyQOc3pc6JzhsEjsdaX20iqCIiICKqICIiAiIgdk7IiB2TsiIHZOyIgdk7IiB2TsiIHZOyIgdk7IiB2TsiIHZOyIgdlC5rQSSAB3JJ0B95REDY1tNhEU3YKptEUoqIitBERKHZERUf/2Q==;" parent="1" vertex="1">
          <mxGeometry x="520" y="1451" width="40" height="50" as="geometry" />
        </mxCell>
        <mxCell id="nukibrV0YJtKpQNif3TN-91" value="Espaces supplémentaires" style="swimlane;fontStyle=0;childLayout=stackLayout;horizontal=1;startSize=30;horizontalStack=0;resizeParent=1;resizeParentMax=0;resizeLast=0;collapsible=1;marginBottom=0;whiteSpace=wrap;html=1;" parent="1" vertex="1">
          <mxGeometry x="520" y="1321" width="680" height="130" as="geometry" />
        </mxCell>
        <mxCell id="nukibrV0YJtKpQNif3TN-92" value="\( E_2 \) est un &lt;i&gt;supplémentaire&lt;/i&gt; de \( E_1 \) ou \( E_1~\text{et}~E_2 \) sont &lt;i&gt;supplémentaires&lt;/i&gt; si \( E = E_1 \oplus E_2 \)" style="text;strokeColor=none;fillColor=none;align=left;verticalAlign=middle;spacingLeft=4;spacingRight=4;overflow=hidden;points=[[0,0.5],[1,0.5]];portConstraint=eastwest;rotatable=0;whiteSpace=wrap;html=1;" parent="nukibrV0YJtKpQNif3TN-91" vertex="1">
          <mxGeometry y="30" width="680" height="50" as="geometry" />
        </mxCell>
        <mxCell id="nukibrV0YJtKpQNif3TN-94" value="On&lt;i&gt; appelle décomposition en somme directe de&lt;/i&gt; \( E \)&lt;span style=&quot;white-space: pre;&quot;&gt; &lt;span style=&quot;white-space: pre;&quot;&gt;toute &lt;/span&gt;&lt;/span&gt;famille \( (E_i)_{i \in I} \) de s.e.v de \( E \) telle que \( E = \bigoplus \limits_{i \in I} E_i \)" style="text;strokeColor=none;fillColor=none;align=left;verticalAlign=middle;spacingLeft=4;spacingRight=4;overflow=hidden;points=[[0,0.5],[1,0.5]];portConstraint=eastwest;rotatable=0;whiteSpace=wrap;html=1;" parent="nukibrV0YJtKpQNif3TN-91" vertex="1">
          <mxGeometry y="80" width="680" height="50" as="geometry" />
        </mxCell>
        <mxCell id="xsxaBmDc6MS7xrfdTg8h-38" style="edgeStyle=orthogonalEdgeStyle;rounded=0;orthogonalLoop=1;jettySize=auto;html=1;" parent="1" source="xsxaBmDc6MS7xrfdTg8h-17" target="xsxaBmDc6MS7xrfdTg8h-23" edge="1">
          <mxGeometry relative="1" as="geometry" />
        </mxCell>
        <mxCell id="xsxaBmDc6MS7xrfdTg8h-17" value="Partie ou famille libre et liée" style="swimlane;fontStyle=0;childLayout=stackLayout;horizontal=1;startSize=30;horizontalStack=0;resizeParent=1;resizeParentMax=0;resizeLast=0;collapsible=1;marginBottom=0;whiteSpace=wrap;html=1;" parent="1" vertex="1">
          <mxGeometry y="1960" width="580" height="240" as="geometry">
            <mxRectangle x="80" y="1600" width="270" height="30" as="alternateBounds" />
          </mxGeometry>
        </mxCell>
        <mxCell id="xsxaBmDc6MS7xrfdTg8h-18" value="Famille libre (finie) dont les vecteurs sont &lt;i&gt;linéairement indépendants&lt;/i&gt;. (线性无关)" style="text;strokeColor=default;fillColor=none;align=left;verticalAlign=middle;spacingLeft=4;spacingRight=4;overflow=hidden;points=[[0,0.5],[1,0.5]];portConstraint=eastwest;rotatable=0;whiteSpace=wrap;html=1;" parent="xsxaBmDc6MS7xrfdTg8h-17" vertex="1">
          <mxGeometry y="30" width="580" height="30" as="geometry" />
        </mxCell>
        <mxCell id="xsxaBmDc6MS7xrfdTg8h-19" value="\( \forall (\lambda_1, ..., \lambda _n) \in \mathbb{K}^n, \sum \limits_{k=1}^{n} \lambda_k . x_k = 0_E \Longrightarrow \forall k \in \) &lt;code&gt;⟦1,n⟧&lt;/code&gt;, \( \lambda_k = 0_\mathbb{K} \)" style="text;strokeColor=none;fillColor=none;align=left;verticalAlign=middle;spacingLeft=4;spacingRight=4;overflow=hidden;points=[[0,0.5],[1,0.5]];portConstraint=eastwest;rotatable=0;whiteSpace=wrap;html=1;" parent="xsxaBmDc6MS7xrfdTg8h-17" vertex="1">
          <mxGeometry y="60" width="580" height="50" as="geometry" />
        </mxCell>
        <mxCell id="xsxaBmDc6MS7xrfdTg8h-20" value="Famille liée (finie) dont les vecteurs sont &lt;i&gt;linéairement dépendants&lt;/i&gt;. (线性相关)" style="text;strokeColor=default;fillColor=none;align=left;verticalAlign=middle;spacingLeft=4;spacingRight=4;overflow=hidden;points=[[0,0.5],[1,0.5]];portConstraint=eastwest;rotatable=0;whiteSpace=wrap;html=1;" parent="xsxaBmDc6MS7xrfdTg8h-17" vertex="1">
          <mxGeometry y="110" width="580" height="30" as="geometry" />
        </mxCell>
        <mxCell id="xsxaBmDc6MS7xrfdTg8h-21" value="Famille libre" style="text;strokeColor=default;fillColor=none;align=left;verticalAlign=middle;spacingLeft=4;spacingRight=4;overflow=hidden;points=[[0,0.5],[1,0.5]];portConstraint=eastwest;rotatable=0;whiteSpace=wrap;html=1;" parent="xsxaBmDc6MS7xrfdTg8h-17" vertex="1">
          <mxGeometry y="140" width="580" height="40" as="geometry" />
        </mxCell>
        <mxCell id="xsxaBmDc6MS7xrfdTg8h-22" value="&lt;p style=&quot;line-height: 150%;&quot;&gt;\( (x_i)_{i \in I} \) une famille de vecteurs est &lt;i&gt;libre&lt;/i&gt; (vecteurs indépendants), si (écriture unique de \( 0_E \)) :&lt;br&gt;\( \forall n \in \mathbb{N}, \forall ( i_1, ..., i_n ) \in I^n, (x_{i_1}, ..., x_{i_n})~\text{est libre} \).&lt;/p&gt;" style="text;strokeColor=none;fillColor=none;align=left;verticalAlign=middle;spacingLeft=4;spacingRight=4;overflow=hidden;points=[[0,0.5],[1,0.5]];portConstraint=eastwest;rotatable=0;whiteSpace=wrap;html=1;" parent="xsxaBmDc6MS7xrfdTg8h-17" vertex="1">
          <mxGeometry y="180" width="580" height="60" as="geometry" />
        </mxCell>
        <mxCell id="xsxaBmDc6MS7xrfdTg8h-23" value="Propriété" style="swimlane;fontStyle=0;childLayout=stackLayout;horizontal=1;startSize=30;horizontalStack=0;resizeParent=1;resizeParentMax=0;resizeLast=0;collapsible=1;marginBottom=0;whiteSpace=wrap;html=1;" parent="1" vertex="1">
          <mxGeometry y="2260" width="580" height="130" as="geometry" />
        </mxCell>
        <mxCell id="xsxaBmDc6MS7xrfdTg8h-24" value="&lt;p style=&quot;line-height: 140%;&quot;&gt;Si \( \{ e_i, i \in I \} \) est une partie libre d&#39;un \( \mathbb{K} \)-espace vectoriel \( E \), et si \( x \notin \mathrm{Vect}( \{ e_i, i \in I\} ) \), alors&lt;br&gt;\( \{ x \} \cup \{ e_i, i \in I \} \) est encore une partie libre de \( E \)&lt;/p&gt;" style="text;strokeColor=default;fillColor=none;align=left;verticalAlign=middle;spacingLeft=4;spacingRight=4;overflow=hidden;points=[[0,0.5],[1,0.5]];portConstraint=eastwest;rotatable=0;whiteSpace=wrap;html=1;" parent="xsxaBmDc6MS7xrfdTg8h-23" vertex="1">
          <mxGeometry y="30" width="580" height="50" as="geometry" />
        </mxCell>
        <mxCell id="xsxaBmDc6MS7xrfdTg8h-25" value="Soit \( \mathcal{X} = (x_i)_{i \in I} \) une famille de vecteurs d&#39;un \( \mathbb{K} \)-espace vectoriel \( E \). Alors :" style="text;strokeColor=none;fillColor=none;align=left;verticalAlign=middle;spacingLeft=4;spacingRight=4;overflow=hidden;points=[[0,0.5],[1,0.5]];portConstraint=eastwest;rotatable=0;whiteSpace=wrap;html=1;" parent="xsxaBmDc6MS7xrfdTg8h-23" vertex="1">
          <mxGeometry y="80" width="580" height="50" as="geometry" />
        </mxCell>
        <mxCell id="xsxaBmDc6MS7xrfdTg8h-36" value="&lt;p style=&quot;line-height: 100%;&quot;&gt;&lt;/p&gt;&lt;div align=&quot;left&quot;&gt;&lt;ol&gt;&lt;li&gt;s&#39;il existe \( i_0 \in I \) tel que \( x_{i_0} = 0_E \), alors \( \mathcal{X} \) est liée ;&lt;/li&gt;&lt;li&gt;s&#39;il existe \( (i, j) \) tel que \( i \neq j~\text{et}~x_i \neq x_j \), alors \( \mathcal{X} \) est liée ;&lt;/li&gt;&lt;li&gt;si une sous-famille \(&amp;nbsp;(x_i)_{i \in J}~\text{où}~J \subset I~\text{est liée}~\), alors \( \mathcal{X} \) est liée ;&lt;/li&gt;&lt;li&gt;si \( \mathcal{X} \) est libre, alors toute sous-famille de \( \mathcal{X} \) est libre.&lt;/li&gt;&lt;/ol&gt;&lt;/div&gt;&lt;p&gt;&lt;/p&gt;" style="text;strokeColor=default;fillColor=none;html=1;whiteSpace=wrap;verticalAlign=middle;overflow=hidden;align=left;container=0;dropTarget=0;collapsible=0;noLabel=0;" parent="1" vertex="1">
          <mxGeometry y="2390" width="580" height="90" as="geometry" />
        </mxCell>
        <mxCell id="xsxaBmDc6MS7xrfdTg8h-43" style="edgeStyle=orthogonalEdgeStyle;rounded=0;orthogonalLoop=1;jettySize=auto;html=1;" parent="1" source="xsxaBmDc6MS7xrfdTg8h-44" target="xsxaBmDc6MS7xrfdTg8h-50" edge="1">
          <mxGeometry relative="1" as="geometry" />
        </mxCell>
        <mxCell id="xsxaBmDc6MS7xrfdTg8h-44" value="Base d&#39;un espace vectoriel" style="swimlane;fontStyle=0;childLayout=stackLayout;horizontal=1;startSize=30;horizontalStack=0;resizeParent=1;resizeParentMax=0;resizeLast=0;collapsible=1;marginBottom=0;whiteSpace=wrap;html=1;" parent="1" vertex="1">
          <mxGeometry y="2560" width="580" height="60" as="geometry">
            <mxRectangle x="80" y="1600" width="270" height="30" as="alternateBounds" />
          </mxGeometry>
        </mxCell>
        <mxCell id="xsxaBmDc6MS7xrfdTg8h-45" value="Une famille \( (x_i)_{i \in I} \) est appelée &lt;i&gt;base de&lt;/i&gt; \( E \), si elle est à la fois famille libre et famille génératrice." style="text;strokeColor=default;fillColor=none;align=left;verticalAlign=middle;spacingLeft=4;spacingRight=4;overflow=hidden;points=[[0,0.5],[1,0.5]];portConstraint=eastwest;rotatable=0;whiteSpace=wrap;html=1;" parent="xsxaBmDc6MS7xrfdTg8h-44" vertex="1">
          <mxGeometry y="30" width="580" height="30" as="geometry" />
        </mxCell>
        <mxCell id="xsxaBmDc6MS7xrfdTg8h-50" value="Propriété" style="swimlane;fontStyle=0;childLayout=stackLayout;horizontal=1;startSize=30;horizontalStack=0;resizeParent=1;resizeParentMax=0;resizeLast=0;collapsible=1;marginBottom=0;whiteSpace=wrap;html=1;" parent="1" vertex="1">
          <mxGeometry y="2660" width="580" height="180" as="geometry" />
        </mxCell>
        <mxCell id="xsxaBmDc6MS7xrfdTg8h-52" value="Soit \( \mathcal{B} = (e_i)_{i \in I} \) est une base de \( E \). Alors :" style="text;strokeColor=none;fillColor=none;align=left;verticalAlign=middle;spacingLeft=4;spacingRight=4;overflow=hidden;points=[[0,0.5],[1,0.5]];portConstraint=eastwest;rotatable=0;whiteSpace=wrap;html=1;" parent="xsxaBmDc6MS7xrfdTg8h-50" vertex="1">
          <mxGeometry y="30" width="580" height="50" as="geometry" />
        </mxCell>
        <mxCell id="xsxaBmDc6MS7xrfdTg8h-54" value="\( \forall x \in E, \exists! \{ i_1, ..., i_n \} \subset I, \exists! ( \lambda_{i_1}, ..., \lambda_{i_n} ) \in (\mathbb{K} \setminus \{ 0_K \} )^n, x = \sum \limits_{k = 1}^{n} \lambda_{i_k} . e_{i_k} \) (唯一分解)" style="text;strokeColor=none;fillColor=none;align=left;verticalAlign=middle;spacingLeft=4;spacingRight=4;overflow=hidden;points=[[0,0.5],[1,0.5]];portConstraint=eastwest;rotatable=0;whiteSpace=wrap;html=1;" parent="xsxaBmDc6MS7xrfdTg8h-50" vertex="1">
          <mxGeometry y="80" width="580" height="50" as="geometry" />
        </mxCell>
        <mxCell id="xsxaBmDc6MS7xrfdTg8h-55" value="Une proposition équivalente : \( E = \bigoplus \limits_{i \in I} \mathrm{Vect}( \{ e_i \} ) =&amp;nbsp; \bigoplus \limits_{i \in I} \mathbb{K} . e_i \)" style="text;strokeColor=none;fillColor=none;align=left;verticalAlign=middle;spacingLeft=4;spacingRight=4;overflow=hidden;points=[[0,0.5],[1,0.5]];portConstraint=eastwest;rotatable=0;whiteSpace=wrap;html=1;" parent="xsxaBmDc6MS7xrfdTg8h-50" vertex="1">
          <mxGeometry y="130" width="580" height="50" as="geometry" />
        </mxCell>
        <mxCell id="xsxaBmDc6MS7xrfdTg8h-60" value="Chapitre 2" style="swimlane;whiteSpace=wrap;html=1;" parent="1" vertex="1">
          <mxGeometry x="120" y="3920" width="240" height="200" as="geometry" />
        </mxCell>
        <mxCell id="xsxaBmDc6MS7xrfdTg8h-61" value="Système Linéaire" style="text;html=1;align=center;verticalAlign=middle;resizable=0;points=[];autosize=1;strokeColor=none;fillColor=none;fontSize=18;" parent="xsxaBmDc6MS7xrfdTg8h-60" vertex="1">
          <mxGeometry x="40" y="92.5" width="160" height="40" as="geometry" />
        </mxCell>
        <mxCell id="xsxaBmDc6MS7xrfdTg8h-62" value="Matrice" style="text;html=1;strokeColor=none;fillColor=none;align=center;verticalAlign=middle;whiteSpace=wrap;rounded=0;fontSize=18;" parent="xsxaBmDc6MS7xrfdTg8h-60" vertex="1">
          <mxGeometry x="55" y="67.5" width="130" height="30" as="geometry" />
        </mxCell>
        <mxCell id="xsxaBmDc6MS7xrfdTg8h-64" value="&lt;font style=&quot;font-size: 24px;&quot;&gt;Dimension finie&lt;br&gt;&lt;/font&gt;" style="html=1;whiteSpace=wrap;container=1;recursiveResize=0;collapsible=0;" parent="1" vertex="1">
          <mxGeometry y="2880" width="580" height="80" as="geometry" />
        </mxCell>
        <mxCell id="xsxaBmDc6MS7xrfdTg8h-65" value="" style="triangle;html=1;whiteSpace=wrap;" parent="xsxaBmDc6MS7xrfdTg8h-64" vertex="1">
          <mxGeometry x="20" y="20" width="20" height="30" as="geometry" />
        </mxCell>
        <mxCell id="xsxaBmDc6MS7xrfdTg8h-66" value="Théorème d&#39;échange" style="swimlane;fontStyle=0;childLayout=stackLayout;horizontal=1;startSize=30;horizontalStack=0;resizeParent=1;resizeParentMax=0;resizeLast=0;collapsible=1;marginBottom=0;whiteSpace=wrap;html=1;" parent="1" vertex="1">
          <mxGeometry y="3020" width="580" height="130" as="geometry" />
        </mxCell>
        <mxCell id="xsxaBmDc6MS7xrfdTg8h-67" value="Soit \( (g_1, ..., g_n) \) est &lt;i&gt;une famille génératrice&lt;/i&gt; et&amp;nbsp;\( (l_1, ..., l_p) \) &lt;i&gt;une famille libre&lt;/i&gt; de \( E \). Alors \( p \leq n \) et" style="text;strokeColor=none;fillColor=none;align=left;verticalAlign=middle;spacingLeft=4;spacingRight=4;overflow=hidden;points=[[0,0.5],[1,0.5]];portConstraint=eastwest;rotatable=0;whiteSpace=wrap;html=1;" parent="xsxaBmDc6MS7xrfdTg8h-66" vertex="1">
          <mxGeometry y="30" width="580" height="50" as="geometry" />
        </mxCell>
        <mxCell id="xsxaBmDc6MS7xrfdTg8h-68" value="\( \exists (i_{p + 1}, ..., i_n) \in [[1, n]]^{n - p}, (l_1, ..., l_p, g_{i_{p + 1}}, ..., g_{i_n}) \) est &lt;i&gt;une famille génératrice&lt;/i&gt; de \( E \) (交换向量)" style="text;strokeColor=none;fillColor=none;align=left;verticalAlign=middle;spacingLeft=4;spacingRight=4;overflow=hidden;points=[[0,0.5],[1,0.5]];portConstraint=eastwest;rotatable=0;whiteSpace=wrap;html=1;" parent="xsxaBmDc6MS7xrfdTg8h-66" vertex="1">
          <mxGeometry y="80" width="580" height="50" as="geometry" />
        </mxCell>
        <mxCell id="xsxaBmDc6MS7xrfdTg8h-70" value="Théorème de base incomplète" style="swimlane;fontStyle=0;childLayout=stackLayout;horizontal=1;startSize=30;horizontalStack=0;resizeParent=1;resizeParentMax=0;resizeLast=0;collapsible=1;marginBottom=0;whiteSpace=wrap;html=1;" parent="1" vertex="1">
          <mxGeometry y="3180" width="580" height="130" as="geometry" />
        </mxCell>
        <mxCell id="xsxaBmDc6MS7xrfdTg8h-71" value="Soit \( (l_1, ..., l_p) \) &lt;i&gt;une famille libre&lt;/i&gt; de \( E \). Alors \( p \leq n \) et" style="text;strokeColor=none;fillColor=none;align=left;verticalAlign=middle;spacingLeft=4;spacingRight=4;overflow=hidden;points=[[0,0.5],[1,0.5]];portConstraint=eastwest;rotatable=0;whiteSpace=wrap;html=1;" parent="xsxaBmDc6MS7xrfdTg8h-70" vertex="1">
          <mxGeometry y="30" width="580" height="50" as="geometry" />
        </mxCell>
        <mxCell id="xsxaBmDc6MS7xrfdTg8h-72" value="\( \exists (l_{p + 1}, ..., l_n) \in E^{n - p}, (l_1, ..., l_n) \) est &lt;i&gt;une base&lt;/i&gt; de \( E \) (补全基)" style="text;strokeColor=none;fillColor=none;align=left;verticalAlign=middle;spacingLeft=4;spacingRight=4;overflow=hidden;points=[[0,0.5],[1,0.5]];portConstraint=eastwest;rotatable=0;whiteSpace=wrap;html=1;" parent="xsxaBmDc6MS7xrfdTg8h-70" vertex="1">
          <mxGeometry y="80" width="580" height="50" as="geometry" />
        </mxCell>
        <mxCell id="xsxaBmDc6MS7xrfdTg8h-73" value="\( E~\text{est un}~\mathbb{K} \text{-e.v.}~\text{de dimension finie} \)" style="text;strokeColor=none;fillColor=none;html=1;fontSize=24;fontStyle=1;verticalAlign=middle;align=center;" parent="1" vertex="1">
          <mxGeometry y="2960" width="580" height="40" as="geometry" />
        </mxCell>
        <mxCell id="xsxaBmDc6MS7xrfdTg8h-74" value="Théorème de base adaptée à une décomposition en somme directe" style="swimlane;fontStyle=0;childLayout=stackLayout;horizontal=1;startSize=30;horizontalStack=0;resizeParent=1;resizeParentMax=0;resizeLast=0;collapsible=1;marginBottom=0;whiteSpace=wrap;html=1;" parent="1" vertex="1">
          <mxGeometry y="3340" width="580" height="140" as="geometry" />
        </mxCell>
        <mxCell id="xsxaBmDc6MS7xrfdTg8h-75" value="&lt;p style=&quot;line-height: 140%;&quot;&gt;On suppose que \( E = F \oplus G \), alors on peut construire une base \( (e_1, ..., e_n)~\text{de}~E \) telle que&lt;br&gt;\( (e_1, ..., e_p)~\text{base de}~F~\text{et}~(e_{p + 1}, ..., e_n)~\text{base de}~G \), où \( p = \mathrm{dim}~ F \)&lt;/p&gt;" style="text;strokeColor=none;fillColor=none;align=left;verticalAlign=middle;spacingLeft=4;spacingRight=4;overflow=hidden;points=[[0,0.5],[1,0.5]];portConstraint=eastwest;rotatable=0;whiteSpace=wrap;html=1;" parent="xsxaBmDc6MS7xrfdTg8h-74" vertex="1">
          <mxGeometry y="30" width="580" height="60" as="geometry" />
        </mxCell>
        <mxCell id="xsxaBmDc6MS7xrfdTg8h-76" value="(Extension à une somme directe finie)" style="text;strokeColor=none;fillColor=none;align=left;verticalAlign=middle;spacingLeft=4;spacingRight=4;overflow=hidden;points=[[0,0.5],[1,0.5]];portConstraint=eastwest;rotatable=0;whiteSpace=wrap;html=1;" parent="xsxaBmDc6MS7xrfdTg8h-74" vertex="1">
          <mxGeometry y="90" width="580" height="50" as="geometry" />
        </mxCell>
        <mxCell id="xsxaBmDc6MS7xrfdTg8h-79" value="Calcul de dimension (finie) de \( \mathbb{K} \).e.v" style="swimlane;fontStyle=0;childLayout=stackLayout;horizontal=1;startSize=30;horizontalStack=0;resizeParent=1;resizeParentMax=0;resizeLast=0;collapsible=1;marginBottom=0;whiteSpace=wrap;html=1;" parent="1" vertex="1">
          <mxGeometry y="3510" width="580" height="230" as="geometry" />
        </mxCell>
        <mxCell id="xsxaBmDc6MS7xrfdTg8h-82" value="\( E = F \oplus G \Longrightarrow \mathrm{dim}~E =&amp;nbsp;\mathrm{dim}~F + \mathrm{dim}~G \)" style="text;strokeColor=none;fillColor=none;align=left;verticalAlign=middle;spacingLeft=4;spacingRight=4;overflow=hidden;points=[[0,0.5],[1,0.5]];portConstraint=eastwest;rotatable=0;whiteSpace=wrap;html=1;" parent="xsxaBmDc6MS7xrfdTg8h-79" vertex="1">
          <mxGeometry y="30" width="580" height="50" as="geometry" />
        </mxCell>
        <mxCell id="xsxaBmDc6MS7xrfdTg8h-84" value="(Extension à une décomposition en somme directe)" style="text;strokeColor=none;fillColor=none;align=left;verticalAlign=middle;spacingLeft=4;spacingRight=4;overflow=hidden;points=[[0,0.5],[1,0.5]];portConstraint=eastwest;rotatable=0;whiteSpace=wrap;html=1;" parent="xsxaBmDc6MS7xrfdTg8h-79" vertex="1">
          <mxGeometry y="80" width="580" height="50" as="geometry" />
        </mxCell>
        <mxCell id="xsxaBmDc6MS7xrfdTg8h-81" value="\( \mathrm{dim}~(E_1 \times E_2) =&amp;nbsp;\mathrm{dim}~E_1 + \mathrm{dim}~E_2 \)" style="text;strokeColor=none;fillColor=none;align=left;verticalAlign=middle;spacingLeft=4;spacingRight=4;overflow=hidden;points=[[0,0.5],[1,0.5]];portConstraint=eastwest;rotatable=0;whiteSpace=wrap;html=1;" parent="xsxaBmDc6MS7xrfdTg8h-79" vertex="1">
          <mxGeometry y="130" width="580" height="50" as="geometry" />
        </mxCell>
        <mxCell id="xsxaBmDc6MS7xrfdTg8h-83" value="(Extension à un produit de dimension finie)" style="text;strokeColor=none;fillColor=none;align=left;verticalAlign=middle;spacingLeft=4;spacingRight=4;overflow=hidden;points=[[0,0.5],[1,0.5]];portConstraint=eastwest;rotatable=0;whiteSpace=wrap;html=1;" parent="xsxaBmDc6MS7xrfdTg8h-79" vertex="1">
          <mxGeometry y="180" width="580" height="50" as="geometry" />
        </mxCell>
        <mxCell id="xsxaBmDc6MS7xrfdTg8h-85" value="&lt;font style=&quot;font-size: 24px;&quot;&gt;Applications linéaires&lt;br&gt;&lt;/font&gt;" style="html=1;whiteSpace=wrap;container=1;recursiveResize=0;collapsible=0;" parent="1" vertex="1">
          <mxGeometry x="600" y="1960" width="580" height="80" as="geometry" />
        </mxCell>
        <mxCell id="xsxaBmDc6MS7xrfdTg8h-86" value="" style="triangle;html=1;whiteSpace=wrap;" parent="xsxaBmDc6MS7xrfdTg8h-85" vertex="1">
          <mxGeometry x="20" y="20" width="20" height="30" as="geometry" />
        </mxCell>
        <mxCell id="xsxaBmDc6MS7xrfdTg8h-91" value="Définition" style="swimlane;fontStyle=0;childLayout=stackLayout;horizontal=1;startSize=30;horizontalStack=0;resizeParent=1;resizeParentMax=0;resizeLast=0;collapsible=1;marginBottom=0;whiteSpace=wrap;html=1;" parent="1" vertex="1">
          <mxGeometry x="600" y="2070" width="580" height="330" as="geometry" />
        </mxCell>
        <mxCell id="xsxaBmDc6MS7xrfdTg8h-92" value="\( f: E \rightarrow E&#39;~~~~\forall (x, y) \in E^2, \forall (\lambda, \mu) \in \mathbb{K}^2, f(\lambda . x + \mu . y) = \lambda . f(x) + \mu . f(y) \)" style="text;strokeColor=none;fillColor=none;align=left;verticalAlign=middle;spacingLeft=4;spacingRight=4;overflow=hidden;points=[[0,0.5],[1,0.5]];portConstraint=eastwest;rotatable=0;whiteSpace=wrap;html=1;" parent="xsxaBmDc6MS7xrfdTg8h-91" vertex="1">
          <mxGeometry y="30" width="580" height="50" as="geometry" />
        </mxCell>
        <mxCell id="xsxaBmDc6MS7xrfdTg8h-93" value="L&#39;ensemble des applications linéaires de \( E \) dans&amp;nbsp;\( E&#39; \) se note : \( \mathscr{L}_{\mathbb{K}} (E, E&#39;)~\text{ou}~\mathscr{L} (E, E&#39;) \)" style="text;strokeColor=none;fillColor=none;align=left;verticalAlign=middle;spacingLeft=4;spacingRight=4;overflow=hidden;points=[[0,0.5],[1,0.5]];portConstraint=eastwest;rotatable=0;whiteSpace=wrap;html=1;" parent="xsxaBmDc6MS7xrfdTg8h-91" vertex="1">
          <mxGeometry y="80" width="580" height="50" as="geometry" />
        </mxCell>
        <mxCell id="xsxaBmDc6MS7xrfdTg8h-94" value="\( E = E&#39; \Rightarrow \) &lt;i&gt;endomorphisme&lt;/i&gt; 自同态" style="text;strokeColor=none;fillColor=none;align=left;verticalAlign=middle;spacingLeft=4;spacingRight=4;overflow=hidden;points=[[0,0.5],[1,0.5]];portConstraint=eastwest;rotatable=0;whiteSpace=wrap;html=1;" parent="xsxaBmDc6MS7xrfdTg8h-91" vertex="1">
          <mxGeometry y="130" width="580" height="50" as="geometry" />
        </mxCell>
        <mxCell id="xsxaBmDc6MS7xrfdTg8h-95" value="\( f \) est bijective \( \Rightarrow \) &lt;i&gt;isomorphisme&lt;/i&gt; 同构" style="text;strokeColor=none;fillColor=none;align=left;verticalAlign=middle;spacingLeft=4;spacingRight=4;overflow=hidden;points=[[0,0.5],[1,0.5]];portConstraint=eastwest;rotatable=0;whiteSpace=wrap;html=1;" parent="xsxaBmDc6MS7xrfdTg8h-91" vertex="1">
          <mxGeometry y="180" width="580" height="50" as="geometry" />
        </mxCell>
        <mxCell id="xsxaBmDc6MS7xrfdTg8h-96" value="\( E = E&#39; \) et \( f \) est bijective \( \Rightarrow \) &lt;i&gt;automorphisme&lt;/i&gt; 自同构" style="text;strokeColor=none;fillColor=none;align=left;verticalAlign=middle;spacingLeft=4;spacingRight=4;overflow=hidden;points=[[0,0.5],[1,0.5]];portConstraint=eastwest;rotatable=0;whiteSpace=wrap;html=1;" parent="xsxaBmDc6MS7xrfdTg8h-91" vertex="1">
          <mxGeometry y="230" width="580" height="50" as="geometry" />
        </mxCell>
        <mxCell id="xsxaBmDc6MS7xrfdTg8h-97" value="\( E&#39; = \mathbb{K} \Rightarrow \) &lt;i&gt;forme linéaire&lt;/i&gt; 线性泛函" style="text;strokeColor=none;fillColor=none;align=left;verticalAlign=middle;spacingLeft=4;spacingRight=4;overflow=hidden;points=[[0,0.5],[1,0.5]];portConstraint=eastwest;rotatable=0;whiteSpace=wrap;html=1;" parent="xsxaBmDc6MS7xrfdTg8h-91" vertex="1">
          <mxGeometry y="280" width="580" height="50" as="geometry" />
        </mxCell>
        <mxCell id="xsxaBmDc6MS7xrfdTg8h-98" value="Théorème de pivot de Gauss" style="swimlane;fontStyle=0;childLayout=stackLayout;horizontal=1;startSize=30;horizontalStack=0;resizeParent=1;resizeParentMax=0;resizeLast=0;collapsible=1;marginBottom=0;whiteSpace=wrap;html=1;" parent="1" vertex="1">
          <mxGeometry x="600" y="2640" width="580" height="60" as="geometry">
            <mxRectangle x="80" y="1600" width="270" height="30" as="alternateBounds" />
          </mxGeometry>
        </mxCell>
        <mxCell id="xsxaBmDc6MS7xrfdTg8h-99" value="(Omit)" style="text;strokeColor=default;fillColor=none;align=left;verticalAlign=middle;spacingLeft=4;spacingRight=4;overflow=hidden;points=[[0,0.5],[1,0.5]];portConstraint=eastwest;rotatable=0;whiteSpace=wrap;html=1;" parent="xsxaBmDc6MS7xrfdTg8h-98" vertex="1">
          <mxGeometry y="30" width="580" height="30" as="geometry" />
        </mxCell>
        <mxCell id="xsxaBmDc6MS7xrfdTg8h-100" value="Théorème du rang ( \( E \) dimension finie !!!)" style="swimlane;fontStyle=0;childLayout=stackLayout;horizontal=1;startSize=30;horizontalStack=0;resizeParent=1;resizeParentMax=0;resizeLast=0;collapsible=1;marginBottom=0;whiteSpace=wrap;html=1;" parent="1" vertex="1">
          <mxGeometry x="600" y="2730" width="580" height="60" as="geometry">
            <mxRectangle x="80" y="1600" width="270" height="30" as="alternateBounds" />
          </mxGeometry>
        </mxCell>
        <mxCell id="xsxaBmDc6MS7xrfdTg8h-101" value="\( \mathrm{rang}(f) = \mathrm{dim}~E - \mathrm{dim~Ker} (f) \)" style="text;strokeColor=default;fillColor=none;align=left;verticalAlign=middle;spacingLeft=4;spacingRight=4;overflow=hidden;points=[[0,0.5],[1,0.5]];portConstraint=eastwest;rotatable=0;whiteSpace=wrap;html=1;" parent="xsxaBmDc6MS7xrfdTg8h-100" vertex="1">
          <mxGeometry y="30" width="580" height="30" as="geometry" />
        </mxCell>
        <mxCell id="xsxaBmDc6MS7xrfdTg8h-102" value="Proposition d&#39;images et de noyaux" style="swimlane;fontStyle=0;childLayout=stackLayout;horizontal=1;startSize=30;horizontalStack=0;resizeParent=1;resizeParentMax=0;resizeLast=0;collapsible=1;marginBottom=0;whiteSpace=wrap;html=1;" parent="1" vertex="1">
          <mxGeometry x="600" y="2520" width="580" height="90" as="geometry">
            <mxRectangle x="80" y="1600" width="270" height="30" as="alternateBounds" />
          </mxGeometry>
        </mxCell>
        <mxCell id="xsxaBmDc6MS7xrfdTg8h-103" value="\( f~\text{est injective}~ \Leftrightarrow \mathrm{Ker}(f) = \{ 0_E \} \)" style="text;strokeColor=default;fillColor=none;align=left;verticalAlign=middle;spacingLeft=4;spacingRight=4;overflow=hidden;points=[[0,0.5],[1,0.5]];portConstraint=eastwest;rotatable=0;whiteSpace=wrap;html=1;" parent="xsxaBmDc6MS7xrfdTg8h-102" vertex="1">
          <mxGeometry y="30" width="580" height="30" as="geometry" />
        </mxCell>
        <mxCell id="xsxaBmDc6MS7xrfdTg8h-104" value="\(&amp;nbsp;f~\text{est surjective}~ \Leftrightarrow \mathrm{Im}(f) = E&#39; \)" style="text;strokeColor=default;fillColor=none;align=left;verticalAlign=middle;spacingLeft=4;spacingRight=4;overflow=hidden;points=[[0,0.5],[1,0.5]];portConstraint=eastwest;rotatable=0;whiteSpace=wrap;html=1;" parent="xsxaBmDc6MS7xrfdTg8h-102" vertex="1">
          <mxGeometry y="60" width="580" height="30" as="geometry" />
        </mxCell>
        <mxCell id="xsxaBmDc6MS7xrfdTg8h-105" value="Factorisation des applications linéaires" style="swimlane;fontStyle=0;childLayout=stackLayout;horizontal=1;startSize=30;horizontalStack=0;resizeParent=1;resizeParentMax=0;resizeLast=0;collapsible=1;marginBottom=0;whiteSpace=wrap;html=1;" parent="1" vertex="1">
          <mxGeometry x="600" y="3716" width="580" height="60" as="geometry">
            <mxRectangle x="80" y="1600" width="270" height="30" as="alternateBounds" />
          </mxGeometry>
        </mxCell>
        <mxCell id="xsxaBmDc6MS7xrfdTg8h-106" value="(Omit)" style="text;strokeColor=default;fillColor=none;align=left;verticalAlign=middle;spacingLeft=4;spacingRight=4;overflow=hidden;points=[[0,0.5],[1,0.5]];portConstraint=eastwest;rotatable=0;whiteSpace=wrap;html=1;" parent="xsxaBmDc6MS7xrfdTg8h-105" vertex="1">
          <mxGeometry y="30" width="580" height="30" as="geometry" />
        </mxCell>
        <mxCell id="xsxaBmDc6MS7xrfdTg8h-107" value="Restriction, Co-restriction, Projection, Projecteur et Symétrie" style="swimlane;fontStyle=0;childLayout=stackLayout;horizontal=1;startSize=30;horizontalStack=0;resizeParent=1;resizeParentMax=0;resizeLast=0;collapsible=1;marginBottom=0;whiteSpace=wrap;html=1;" parent="1" vertex="1">
          <mxGeometry x="600" y="2820" width="580" height="840" as="geometry">
            <mxRectangle x="80" y="1600" width="270" height="30" as="alternateBounds" />
          </mxGeometry>
        </mxCell>
        <mxCell id="1KNfAVo7iAk2fxPdMvUp-7" value="On admet que \( f \in \mathscr{L} (E, E&#39;) \)" style="text;strokeColor=none;fillColor=none;align=left;verticalAlign=middle;spacingLeft=4;spacingRight=4;overflow=hidden;points=[[0,0.5],[1,0.5]];portConstraint=eastwest;rotatable=0;whiteSpace=wrap;html=1;" parent="xsxaBmDc6MS7xrfdTg8h-107" vertex="1">
          <mxGeometry y="30" width="580" height="60" as="geometry" />
        </mxCell>
        <mxCell id="1KNfAVo7iAk2fxPdMvUp-5" value="&lt;b&gt;Restriction&lt;/b&gt;" style="text;strokeColor=none;fillColor=none;align=left;verticalAlign=middle;spacingLeft=4;spacingRight=4;overflow=hidden;points=[[0,0.5],[1,0.5]];portConstraint=eastwest;rotatable=0;whiteSpace=wrap;html=1;" parent="xsxaBmDc6MS7xrfdTg8h-107" vertex="1">
          <mxGeometry y="90" width="580" height="40" as="geometry" />
        </mxCell>
        <mxCell id="xsxaBmDc6MS7xrfdTg8h-108" value="\( F \) est un s.e.v. de \( E \), alors la &lt;i&gt;restriction&lt;/i&gt; de \(f\), notée \( f_{|F} \), est définie par: $$ \forall x \in F, f_{|F} (x) = f(x) $$&lt;br&gt;est une application linéaire de \(F\) dans \(E&#39;\). De plus,&lt;br&gt;$$\left\{&lt;br&gt;\begin{aligned}&lt;br&gt;&amp;amp;\mathscr{L}(E, E&#39;) \rightarrow \mathscr{L}(F, E&#39;)&amp;nbsp; \\&lt;br&gt;&amp;amp;f \mapsto f_{|F}&lt;br&gt;\end{aligned} \right.~~~~\text{est une application linéaire.}&lt;br&gt;$$" style="text;strokeColor=none;fillColor=none;align=left;verticalAlign=middle;spacingLeft=4;spacingRight=4;overflow=hidden;points=[[0,0.5],[1,0.5]];portConstraint=eastwest;rotatable=0;whiteSpace=wrap;html=1;" parent="xsxaBmDc6MS7xrfdTg8h-107" vertex="1">
          <mxGeometry y="130" width="580" height="210" as="geometry" />
        </mxCell>
        <mxCell id="1KNfAVo7iAk2fxPdMvUp-4" value="&lt;b&gt;Co-restriction&lt;/b&gt;" style="text;strokeColor=none;fillColor=none;align=left;verticalAlign=middle;spacingLeft=4;spacingRight=4;overflow=hidden;points=[[0,0.5],[1,0.5]];portConstraint=eastwest;rotatable=0;whiteSpace=wrap;html=1;" parent="xsxaBmDc6MS7xrfdTg8h-107" vertex="1">
          <mxGeometry y="340" width="580" height="40" as="geometry" />
        </mxCell>
        <mxCell id="1KNfAVo7iAk2fxPdMvUp-6" value="\( F&#39; \) est un s.e.v. de \( E&#39; \) tel que \( f(E) \subset F&#39; \), alors la &lt;i&gt;co-restriction&lt;/i&gt; de \( f \), notée \( f^{|F&#39;} \), est définie par: $$ \forall x \in E, f^{|F&#39;} (x) = f(x) $$&lt;br&gt;est une application linéaire de \(F\) dans \(E&#39;\). De plus,&lt;br&gt;$$\left\{&lt;br&gt;\begin{aligned}&lt;br&gt;&amp;amp;\{ f \in \mathscr{L}(E, E&#39;), f(E) \subset F&#39; \} \rightarrow \mathscr{L}(E, F&#39;)&amp;nbsp; \\&lt;br&gt;&amp;amp;f \mapsto f^{|F&#39;}&lt;br&gt;\end{aligned} \right.~~~~\text{est une application linéaire.}&lt;br&gt;$$" style="text;strokeColor=none;fillColor=none;align=left;verticalAlign=middle;spacingLeft=4;spacingRight=4;overflow=hidden;points=[[0,0.5],[1,0.5]];portConstraint=eastwest;rotatable=0;whiteSpace=wrap;html=1;" parent="xsxaBmDc6MS7xrfdTg8h-107" vertex="1">
          <mxGeometry y="380" width="580" height="210" as="geometry" />
        </mxCell>
        <mxCell id="nUV4On40YCv9fIhMt9a6-2" value="&lt;b&gt;Projection&lt;/b&gt;" style="text;strokeColor=none;fillColor=none;align=left;verticalAlign=middle;spacingLeft=4;spacingRight=4;overflow=hidden;points=[[0,0.5],[1,0.5]];portConstraint=eastwest;rotatable=0;whiteSpace=wrap;html=1;" parent="xsxaBmDc6MS7xrfdTg8h-107" vertex="1">
          <mxGeometry y="590" width="580" height="40" as="geometry" />
        </mxCell>
        <mxCell id="nUV4On40YCv9fIhMt9a6-1" value="&lt;br&gt;&lt;div&gt;F et G&lt;span style=&quot;mso-spacerun:&#39;yes&#39;;font-size:9.9626pt;font-family:;color:rgb(0,0,0);font-style:italic;&quot;&gt; &lt;/span&gt;&lt;span style=&quot;font-size: 9.9626pt; color: rgb(0, 0, 0);&quot;&gt;sont&lt;/span&gt;&lt;span style=&quot;mso-spacerun:&#39;yes&#39;;font-size:9.9626pt;font-family:;color:rgb(0,0,0);font-style:italic;&quot;&gt; &lt;/span&gt;&lt;span style=&quot;mso-spacerun:&#39;yes&#39;;font-size:9.9626pt;font-family:;color:rgb(0,0,0);&quot;&gt;deux s.e.v. de E&lt;/span&gt;&lt;span style=&quot;mso-spacerun:&#39;yes&#39;;font-size:9.9626pt;font-family:;color:rgb(0,0,0);font-style:italic;&quot;&gt; &lt;/span&gt;&lt;span style=&quot;mso-spacerun:&#39;yes&#39;;font-size:9.9626pt;font-family:;color:rgb(0,0,0);&quot;&gt;tels que &lt;/span&gt;\( E = F \oplus G\)&lt;span style=&quot;mso-spacerun:&#39;yes&#39;;font-size:9.9626pt;font-family:;color:rgb(0,0,0);&quot;&gt;. On appelle &lt;/span&gt;&lt;span style=&quot;mso-spacerun:&#39;yes&#39;;font-size:9.9626pt;font-family:;color:rgb(0,0,0);font-style:italic;&quot;&gt;projection de E sur F parallèlement à G &lt;/span&gt;&lt;span style=&quot;mso-spacerun:&#39;yes&#39;;font-size:9.9626pt;font-family:;color:rgb(0,0,0);&quot;&gt;l’endomorphisme de &lt;/span&gt;&lt;span style=&quot;mso-spacerun:&#39;yes&#39;;font-size:9.9626pt;font-family:;color:rgb(0,0,0);font-style:italic;&quot;&gt;E &lt;/span&gt;&lt;span style=&quot;mso-spacerun:&#39;yes&#39;;font-size:9.9626pt;font-family:;color:rgb(0,0,0);&quot;&gt;défini par :&lt;br&gt;&lt;/span&gt;&lt;/div&gt;$$ p_{\small{F||G}} : \left\{&lt;br&gt;\begin{aligned}&lt;br&gt;&amp;amp;E \rightarrow E \\&lt;br&gt;&amp;amp;x \mapsto x_{\small{F}} ~~~~\text{où}~x = x_F + x_G ~\text{avec}~ x_{\small{F}} \in F ~\text{et}~ x_{\small{G}} \in G&lt;br&gt;\end{aligned} \right.&lt;br&gt;$$" style="text;strokeColor=none;fillColor=none;align=left;verticalAlign=middle;spacingLeft=4;spacingRight=4;overflow=hidden;points=[[0,0.5],[1,0.5]];portConstraint=eastwest;rotatable=0;whiteSpace=wrap;html=1;" parent="xsxaBmDc6MS7xrfdTg8h-107" vertex="1">
          <mxGeometry y="630" width="580" height="210" as="geometry" />
        </mxCell>
        <mxCell id="8UvBYQlVVBI88wMYemuw-1" value="Définition d&#39;une matrice" style="swimlane;fontStyle=0;childLayout=stackLayout;horizontal=1;startSize=30;horizontalStack=0;resizeParent=1;resizeParentMax=0;resizeLast=0;collapsible=1;marginBottom=0;whiteSpace=wrap;html=1;" parent="1" vertex="1">
          <mxGeometry y="4200" width="580" height="230" as="geometry" />
        </mxCell>
        <mxCell id="8UvBYQlVVBI88wMYemuw-2" value="\( E = F \oplus G \Longrightarrow \mathrm{dim}~E =&amp;nbsp;\mathrm{dim}~F + \mathrm{dim}~G \)" style="text;strokeColor=none;fillColor=none;align=left;verticalAlign=middle;spacingLeft=4;spacingRight=4;overflow=hidden;points=[[0,0.5],[1,0.5]];portConstraint=eastwest;rotatable=0;whiteSpace=wrap;html=1;" parent="8UvBYQlVVBI88wMYemuw-1" vertex="1">
          <mxGeometry y="30" width="580" height="50" as="geometry" />
        </mxCell>
        <mxCell id="8UvBYQlVVBI88wMYemuw-3" value="(Extension à une décomposition en somme directe)" style="text;strokeColor=none;fillColor=none;align=left;verticalAlign=middle;spacingLeft=4;spacingRight=4;overflow=hidden;points=[[0,0.5],[1,0.5]];portConstraint=eastwest;rotatable=0;whiteSpace=wrap;html=1;" parent="8UvBYQlVVBI88wMYemuw-1" vertex="1">
          <mxGeometry y="80" width="580" height="50" as="geometry" />
        </mxCell>
        <mxCell id="8UvBYQlVVBI88wMYemuw-4" value="\( \mathrm{dim}~(E_1 \times E_2) =&amp;nbsp;\mathrm{dim}~E_1 + \mathrm{dim}~E_2 \)" style="text;strokeColor=none;fillColor=none;align=left;verticalAlign=middle;spacingLeft=4;spacingRight=4;overflow=hidden;points=[[0,0.5],[1,0.5]];portConstraint=eastwest;rotatable=0;whiteSpace=wrap;html=1;" parent="8UvBYQlVVBI88wMYemuw-1" vertex="1">
          <mxGeometry y="130" width="580" height="50" as="geometry" />
        </mxCell>
        <mxCell id="8UvBYQlVVBI88wMYemuw-5" value="(Extension à un produit de dimension finie)" style="text;strokeColor=none;fillColor=none;align=left;verticalAlign=middle;spacingLeft=4;spacingRight=4;overflow=hidden;points=[[0,0.5],[1,0.5]];portConstraint=eastwest;rotatable=0;whiteSpace=wrap;html=1;" parent="8UvBYQlVVBI88wMYemuw-1" vertex="1">
          <mxGeometry y="180" width="580" height="50" as="geometry" />
        </mxCell>
      </root>
    </mxGraphModel>
  </diagram>
</mxfile>
